<mxfile host="Electron" modified="2024-12-03T20:44:57.474Z" agent="Mozilla/5.0 (Windows NT 10.0; Win64; x64) AppleWebKit/537.36 (KHTML, like Gecko) draw.io/22.0.3 Chrome/114.0.5735.289 Electron/25.8.4 Safari/537.36" etag="5r74j70_9NPnk8gs5Ut1" version="22.0.3" type="device">
  <diagram name="第1頁" id="RSBEpMBs8AiLDluXtR-K">
    <mxGraphModel dx="1050" dy="629" grid="1" gridSize="10" guides="1" tooltips="1" connect="1" arrows="1" fold="1" page="1" pageScale="1" pageWidth="827" pageHeight="1169" math="0" shadow="0">
      <root>
        <mxCell id="0" />
        <mxCell id="1" parent="0" />
        <mxCell id="vbGfuvybAaN1K-2_PYyb-240" value="alt" style="shape=umlFrame;whiteSpace=wrap;html=1;pointerEvents=0;width=45;height=20;" parent="1" vertex="1">
          <mxGeometry x="181.15" y="1190" width="690" height="90" as="geometry" />
        </mxCell>
        <mxCell id="vbGfuvybAaN1K-2_PYyb-241" value="User" style="shape=umlActor;verticalLabelPosition=bottom;verticalAlign=top;html=1;outlineConnect=0;" parent="1" vertex="1">
          <mxGeometry x="90" y="100" width="30" height="60" as="geometry" />
        </mxCell>
        <mxCell id="vbGfuvybAaN1K-2_PYyb-242" value="" style="endArrow=none;dashed=1;html=1;rounded=0;" parent="1" edge="1">
          <mxGeometry width="50" height="50" relative="1" as="geometry">
            <mxPoint x="105" y="540" as="sourcePoint" />
            <mxPoint x="104.5" y="190" as="targetPoint" />
          </mxGeometry>
        </mxCell>
        <mxCell id="vbGfuvybAaN1K-2_PYyb-243" value=":UserUI" style="rounded=1;whiteSpace=wrap;html=1;" parent="1" vertex="1">
          <mxGeometry x="190" y="140" width="80" height="40" as="geometry" />
        </mxCell>
        <mxCell id="vbGfuvybAaN1K-2_PYyb-244" value="EnterRegisterSystem()" style="endArrow=classic;html=1;rounded=0;entryX=0;entryY=0.333;entryDx=0;entryDy=0;entryPerimeter=0;" parent="1" target="vbGfuvybAaN1K-2_PYyb-247" edge="1">
          <mxGeometry y="10" width="50" height="50" relative="1" as="geometry">
            <mxPoint x="110" y="210" as="sourcePoint" />
            <mxPoint x="220" y="210" as="targetPoint" />
            <mxPoint as="offset" />
          </mxGeometry>
        </mxCell>
        <mxCell id="vbGfuvybAaN1K-2_PYyb-245" value="" style="endArrow=none;dashed=1;html=1;rounded=0;" parent="1" source="vbGfuvybAaN1K-2_PYyb-247" edge="1">
          <mxGeometry width="50" height="50" relative="1" as="geometry">
            <mxPoint x="230" y="540" as="sourcePoint" />
            <mxPoint x="230" y="190" as="targetPoint" />
          </mxGeometry>
        </mxCell>
        <mxCell id="vbGfuvybAaN1K-2_PYyb-246" value="" style="endArrow=none;dashed=1;html=1;rounded=0;" parent="1" target="vbGfuvybAaN1K-2_PYyb-247" edge="1">
          <mxGeometry width="50" height="50" relative="1" as="geometry">
            <mxPoint x="230" y="540" as="sourcePoint" />
            <mxPoint x="230" y="190" as="targetPoint" />
          </mxGeometry>
        </mxCell>
        <mxCell id="vbGfuvybAaN1K-2_PYyb-247" value="" style="rounded=0;whiteSpace=wrap;html=1;" parent="1" vertex="1">
          <mxGeometry x="225" y="200" width="10" height="30" as="geometry" />
        </mxCell>
        <mxCell id="vbGfuvybAaN1K-2_PYyb-248" value="ShowUserUI()" style="endArrow=classic;html=1;rounded=0;dashed=1;" parent="1" edge="1">
          <mxGeometry x="-0.0526" y="14" width="50" height="50" relative="1" as="geometry">
            <mxPoint x="225" y="219.5" as="sourcePoint" />
            <mxPoint x="111" y="219.5" as="targetPoint" />
            <mxPoint as="offset" />
          </mxGeometry>
        </mxCell>
        <mxCell id="vbGfuvybAaN1K-2_PYyb-249" value=":&lt;span style=&quot;font-size: 11px; text-wrap: nowrap; background-color: rgb(255, 255, 255);&quot;&gt;Register Page&lt;/span&gt;" style="rounded=1;whiteSpace=wrap;html=1;" parent="1" vertex="1">
          <mxGeometry x="320" y="142.5" width="80" height="40" as="geometry" />
        </mxCell>
        <mxCell id="vbGfuvybAaN1K-2_PYyb-250" value="" style="rounded=0;whiteSpace=wrap;html=1;" parent="1" vertex="1">
          <mxGeometry x="225" y="280" width="10" height="230" as="geometry" />
        </mxCell>
        <mxCell id="vbGfuvybAaN1K-2_PYyb-251" value="" style="endArrow=none;dashed=1;html=1;rounded=0;" parent="1" source="vbGfuvybAaN1K-2_PYyb-253" target="vbGfuvybAaN1K-2_PYyb-249" edge="1">
          <mxGeometry width="50" height="50" relative="1" as="geometry">
            <mxPoint x="359.5" y="540" as="sourcePoint" />
            <mxPoint x="359.5" y="240" as="targetPoint" />
          </mxGeometry>
        </mxCell>
        <mxCell id="vbGfuvybAaN1K-2_PYyb-252" value="" style="endArrow=none;dashed=1;html=1;rounded=0;" parent="1" source="vbGfuvybAaN1K-2_PYyb-258" target="vbGfuvybAaN1K-2_PYyb-253" edge="1">
          <mxGeometry width="50" height="50" relative="1" as="geometry">
            <mxPoint x="359.5" y="540" as="sourcePoint" />
            <mxPoint x="359.5" y="240" as="targetPoint" />
          </mxGeometry>
        </mxCell>
        <mxCell id="vbGfuvybAaN1K-2_PYyb-253" value="" style="rounded=0;whiteSpace=wrap;html=1;" parent="1" vertex="1">
          <mxGeometry x="355" y="290" width="10" height="30" as="geometry" />
        </mxCell>
        <mxCell id="vbGfuvybAaN1K-2_PYyb-254" value="ClickRegisterButton()" style="endArrow=classic;html=1;rounded=0;exitX=1.1;exitY=0.048;exitDx=0;exitDy=0;exitPerimeter=0;entryX=0;entryY=0;entryDx=0;entryDy=0;" parent="1" edge="1">
          <mxGeometry x="0.0599" y="10" width="50" height="50" relative="1" as="geometry">
            <mxPoint x="238" y="300.03999999999996" as="sourcePoint" />
            <mxPoint x="355" y="300" as="targetPoint" />
            <mxPoint as="offset" />
          </mxGeometry>
        </mxCell>
        <mxCell id="vbGfuvybAaN1K-2_PYyb-255" value="ShowUserUI()" style="endArrow=classic;html=1;rounded=0;dashed=1;" parent="1" edge="1">
          <mxGeometry x="-0.0526" y="14" width="50" height="50" relative="1" as="geometry">
            <mxPoint x="349" y="310" as="sourcePoint" />
            <mxPoint x="235" y="310" as="targetPoint" />
            <mxPoint as="offset" />
          </mxGeometry>
        </mxCell>
        <mxCell id="vbGfuvybAaN1K-2_PYyb-256" value="Register(account,&lt;div&gt;password,name,Email)&lt;/div&gt;" style="endArrow=classic;html=1;rounded=0;exitX=1.1;exitY=0.048;exitDx=0;exitDy=0;exitPerimeter=0;entryX=0;entryY=0;entryDx=0;entryDy=0;" parent="1" edge="1">
          <mxGeometry x="0.1112" y="17" width="50" height="50" relative="1" as="geometry">
            <mxPoint x="235" y="370.03999999999996" as="sourcePoint" />
            <mxPoint x="352" y="370" as="targetPoint" />
            <mxPoint as="offset" />
          </mxGeometry>
        </mxCell>
        <mxCell id="vbGfuvybAaN1K-2_PYyb-257" value="" style="endArrow=none;dashed=1;html=1;rounded=0;" parent="1" target="vbGfuvybAaN1K-2_PYyb-258" edge="1">
          <mxGeometry width="50" height="50" relative="1" as="geometry">
            <mxPoint x="359.5" y="540" as="sourcePoint" />
            <mxPoint x="360" y="320" as="targetPoint" />
          </mxGeometry>
        </mxCell>
        <mxCell id="vbGfuvybAaN1K-2_PYyb-258" value="" style="rounded=0;whiteSpace=wrap;html=1;" parent="1" vertex="1">
          <mxGeometry x="355" y="360" width="10" height="90" as="geometry" />
        </mxCell>
        <mxCell id="vbGfuvybAaN1K-2_PYyb-259" value="alt" style="shape=umlFrame;whiteSpace=wrap;html=1;pointerEvents=0;width=45;height=20;" parent="1" vertex="1">
          <mxGeometry x="50" y="382" width="385" height="78" as="geometry" />
        </mxCell>
        <mxCell id="vbGfuvybAaN1K-2_PYyb-260" value="" style="endArrow=none;dashed=1;html=1;rounded=0;exitX=0.005;exitY=0.557;exitDx=0;exitDy=0;exitPerimeter=0;entryX=0.998;entryY=0.556;entryDx=0;entryDy=0;entryPerimeter=0;" parent="1" edge="1">
          <mxGeometry width="50" height="50" relative="1" as="geometry">
            <mxPoint x="50.00499999999995" y="426.076" as="sourcePoint" />
            <mxPoint x="432.31" y="425.99800000000005" as="targetPoint" />
          </mxGeometry>
        </mxCell>
        <mxCell id="vbGfuvybAaN1K-2_PYyb-261" value="ReturnSuccess&lt;div&gt;Message()&lt;/div&gt;" style="endArrow=classic;html=1;rounded=0;dashed=1;" parent="1" edge="1">
          <mxGeometry x="-0.0526" y="14" width="50" height="50" relative="1" as="geometry">
            <mxPoint x="349" y="390" as="sourcePoint" />
            <mxPoint x="235" y="390" as="targetPoint" />
            <mxPoint as="offset" />
          </mxGeometry>
        </mxCell>
        <mxCell id="vbGfuvybAaN1K-2_PYyb-262" value="ReturnFailMessageAndBackSearchPage()" style="endArrow=classic;html=1;rounded=0;dashed=1;" parent="1" edge="1">
          <mxGeometry x="-0.0526" y="14" width="50" height="50" relative="1" as="geometry">
            <mxPoint x="803.15" y="1251" as="sourcePoint" />
            <mxPoint x="385.15" y="1251" as="targetPoint" />
            <mxPoint as="offset" />
          </mxGeometry>
        </mxCell>
        <mxCell id="vbGfuvybAaN1K-2_PYyb-263" value="[註冊成功]" style="text;html=1;align=center;verticalAlign=middle;whiteSpace=wrap;rounded=0;" parent="1" vertex="1">
          <mxGeometry x="50" y="400" width="60" height="30" as="geometry" />
        </mxCell>
        <mxCell id="vbGfuvybAaN1K-2_PYyb-264" value="[註冊失敗]" style="text;html=1;align=center;verticalAlign=middle;whiteSpace=wrap;rounded=0;" parent="1" vertex="1">
          <mxGeometry x="50" y="430" width="60" height="30" as="geometry" />
        </mxCell>
        <mxCell id="vbGfuvybAaN1K-2_PYyb-265" value="User" style="shape=umlActor;verticalLabelPosition=bottom;verticalAlign=top;html=1;outlineConnect=0;" parent="1" vertex="1">
          <mxGeometry x="590" y="100" width="30" height="60" as="geometry" />
        </mxCell>
        <mxCell id="vbGfuvybAaN1K-2_PYyb-266" value="" style="endArrow=none;dashed=1;html=1;rounded=0;" parent="1" edge="1">
          <mxGeometry width="50" height="50" relative="1" as="geometry">
            <mxPoint x="605" y="540" as="sourcePoint" />
            <mxPoint x="604.5" y="190" as="targetPoint" />
          </mxGeometry>
        </mxCell>
        <mxCell id="vbGfuvybAaN1K-2_PYyb-267" value=":UserUI" style="rounded=1;whiteSpace=wrap;html=1;" parent="1" vertex="1">
          <mxGeometry x="690" y="140" width="80" height="40" as="geometry" />
        </mxCell>
        <mxCell id="vbGfuvybAaN1K-2_PYyb-268" value="EnterLoginSystem()" style="endArrow=classic;html=1;rounded=0;entryX=0;entryY=0.333;entryDx=0;entryDy=0;entryPerimeter=0;" parent="1" target="vbGfuvybAaN1K-2_PYyb-271" edge="1">
          <mxGeometry y="10" width="50" height="50" relative="1" as="geometry">
            <mxPoint x="610" y="210" as="sourcePoint" />
            <mxPoint x="720" y="210" as="targetPoint" />
            <mxPoint as="offset" />
          </mxGeometry>
        </mxCell>
        <mxCell id="vbGfuvybAaN1K-2_PYyb-269" value="" style="endArrow=none;dashed=1;html=1;rounded=0;" parent="1" source="vbGfuvybAaN1K-2_PYyb-271" edge="1">
          <mxGeometry width="50" height="50" relative="1" as="geometry">
            <mxPoint x="730" y="540" as="sourcePoint" />
            <mxPoint x="730" y="190" as="targetPoint" />
          </mxGeometry>
        </mxCell>
        <mxCell id="vbGfuvybAaN1K-2_PYyb-270" value="" style="endArrow=none;dashed=1;html=1;rounded=0;" parent="1" target="vbGfuvybAaN1K-2_PYyb-271" edge="1">
          <mxGeometry width="50" height="50" relative="1" as="geometry">
            <mxPoint x="730" y="540" as="sourcePoint" />
            <mxPoint x="730" y="190" as="targetPoint" />
          </mxGeometry>
        </mxCell>
        <mxCell id="vbGfuvybAaN1K-2_PYyb-271" value="" style="rounded=0;whiteSpace=wrap;html=1;" parent="1" vertex="1">
          <mxGeometry x="725" y="200" width="10" height="30" as="geometry" />
        </mxCell>
        <mxCell id="vbGfuvybAaN1K-2_PYyb-272" value="ShowUserUI()" style="endArrow=classic;html=1;rounded=0;dashed=1;" parent="1" edge="1">
          <mxGeometry x="-0.0526" y="14" width="50" height="50" relative="1" as="geometry">
            <mxPoint x="725" y="219.5" as="sourcePoint" />
            <mxPoint x="611" y="219.5" as="targetPoint" />
            <mxPoint as="offset" />
          </mxGeometry>
        </mxCell>
        <mxCell id="vbGfuvybAaN1K-2_PYyb-273" value=":Login&lt;span style=&quot;font-size: 11px; text-wrap: nowrap; background-color: rgb(255, 255, 255);&quot;&gt;&amp;nbsp;Page&lt;/span&gt;" style="rounded=1;whiteSpace=wrap;html=1;" parent="1" vertex="1">
          <mxGeometry x="820" y="140" width="80" height="40" as="geometry" />
        </mxCell>
        <mxCell id="vbGfuvybAaN1K-2_PYyb-274" value="" style="rounded=0;whiteSpace=wrap;html=1;" parent="1" vertex="1">
          <mxGeometry x="725" y="280" width="10" height="230" as="geometry" />
        </mxCell>
        <mxCell id="vbGfuvybAaN1K-2_PYyb-275" value="" style="endArrow=none;dashed=1;html=1;rounded=0;" parent="1" source="vbGfuvybAaN1K-2_PYyb-277" target="vbGfuvybAaN1K-2_PYyb-273" edge="1">
          <mxGeometry width="50" height="50" relative="1" as="geometry">
            <mxPoint x="859.5" y="540" as="sourcePoint" />
            <mxPoint x="859.5" y="240" as="targetPoint" />
          </mxGeometry>
        </mxCell>
        <mxCell id="vbGfuvybAaN1K-2_PYyb-276" value="" style="endArrow=none;dashed=1;html=1;rounded=0;" parent="1" source="vbGfuvybAaN1K-2_PYyb-282" target="vbGfuvybAaN1K-2_PYyb-277" edge="1">
          <mxGeometry width="50" height="50" relative="1" as="geometry">
            <mxPoint x="859.5" y="540" as="sourcePoint" />
            <mxPoint x="859.5" y="240" as="targetPoint" />
          </mxGeometry>
        </mxCell>
        <mxCell id="vbGfuvybAaN1K-2_PYyb-277" value="" style="rounded=0;whiteSpace=wrap;html=1;" parent="1" vertex="1">
          <mxGeometry x="855" y="290" width="10" height="30" as="geometry" />
        </mxCell>
        <mxCell id="vbGfuvybAaN1K-2_PYyb-278" value="ClickLoginButton()" style="endArrow=classic;html=1;rounded=0;exitX=1.1;exitY=0.048;exitDx=0;exitDy=0;exitPerimeter=0;entryX=0;entryY=0;entryDx=0;entryDy=0;" parent="1" edge="1">
          <mxGeometry x="0.0599" y="10" width="50" height="50" relative="1" as="geometry">
            <mxPoint x="738" y="300.03999999999996" as="sourcePoint" />
            <mxPoint x="855" y="300" as="targetPoint" />
            <mxPoint as="offset" />
          </mxGeometry>
        </mxCell>
        <mxCell id="vbGfuvybAaN1K-2_PYyb-279" value="ShowUserUI()" style="endArrow=classic;html=1;rounded=0;dashed=1;" parent="1" edge="1">
          <mxGeometry x="-0.0526" y="14" width="50" height="50" relative="1" as="geometry">
            <mxPoint x="849" y="310" as="sourcePoint" />
            <mxPoint x="735" y="310" as="targetPoint" />
            <mxPoint as="offset" />
          </mxGeometry>
        </mxCell>
        <mxCell id="vbGfuvybAaN1K-2_PYyb-280" value="Login(account,&lt;div&gt;password)&lt;/div&gt;" style="endArrow=classic;html=1;rounded=0;exitX=1.1;exitY=0.048;exitDx=0;exitDy=0;exitPerimeter=0;entryX=0;entryY=0;entryDx=0;entryDy=0;" parent="1" edge="1">
          <mxGeometry x="0.1112" y="17" width="50" height="50" relative="1" as="geometry">
            <mxPoint x="735" y="370.03999999999996" as="sourcePoint" />
            <mxPoint x="852" y="370" as="targetPoint" />
            <mxPoint as="offset" />
          </mxGeometry>
        </mxCell>
        <mxCell id="vbGfuvybAaN1K-2_PYyb-281" value="" style="endArrow=none;dashed=1;html=1;rounded=0;" parent="1" target="vbGfuvybAaN1K-2_PYyb-282" edge="1">
          <mxGeometry width="50" height="50" relative="1" as="geometry">
            <mxPoint x="859.5" y="540" as="sourcePoint" />
            <mxPoint x="860" y="320" as="targetPoint" />
          </mxGeometry>
        </mxCell>
        <mxCell id="vbGfuvybAaN1K-2_PYyb-282" value="" style="rounded=0;whiteSpace=wrap;html=1;" parent="1" vertex="1">
          <mxGeometry x="855" y="360" width="10" height="110" as="geometry" />
        </mxCell>
        <mxCell id="vbGfuvybAaN1K-2_PYyb-283" value="alt" style="shape=umlFrame;whiteSpace=wrap;html=1;pointerEvents=0;width=45;height=20;" parent="1" vertex="1">
          <mxGeometry x="550" y="382" width="385" height="78" as="geometry" />
        </mxCell>
        <mxCell id="vbGfuvybAaN1K-2_PYyb-284" value="" style="endArrow=none;dashed=1;html=1;rounded=0;exitX=0.005;exitY=0.557;exitDx=0;exitDy=0;exitPerimeter=0;entryX=0.998;entryY=0.556;entryDx=0;entryDy=0;entryPerimeter=0;" parent="1" edge="1">
          <mxGeometry width="50" height="50" relative="1" as="geometry">
            <mxPoint x="550.0049999999999" y="426.076" as="sourcePoint" />
            <mxPoint x="932.31" y="425.99800000000005" as="targetPoint" />
          </mxGeometry>
        </mxCell>
        <mxCell id="vbGfuvybAaN1K-2_PYyb-285" value="ReturnSuccess&lt;div&gt;Message()&lt;/div&gt;" style="endArrow=classic;html=1;rounded=0;dashed=1;" parent="1" edge="1">
          <mxGeometry x="-0.0526" y="14" width="50" height="50" relative="1" as="geometry">
            <mxPoint x="849" y="390" as="sourcePoint" />
            <mxPoint x="735" y="390" as="targetPoint" />
            <mxPoint as="offset" />
          </mxGeometry>
        </mxCell>
        <mxCell id="vbGfuvybAaN1K-2_PYyb-286" value="ReturnFailMessage()" style="endArrow=classic;html=1;rounded=0;dashed=1;" parent="1" edge="1">
          <mxGeometry x="-0.0526" y="14" width="50" height="50" relative="1" as="geometry">
            <mxPoint x="849" y="436" as="sourcePoint" />
            <mxPoint x="735" y="436" as="targetPoint" />
            <mxPoint as="offset" />
          </mxGeometry>
        </mxCell>
        <mxCell id="vbGfuvybAaN1K-2_PYyb-287" value="[註冊成功]" style="text;html=1;align=center;verticalAlign=middle;whiteSpace=wrap;rounded=0;" parent="1" vertex="1">
          <mxGeometry x="550" y="400" width="60" height="30" as="geometry" />
        </mxCell>
        <mxCell id="vbGfuvybAaN1K-2_PYyb-288" value="[註冊失敗]" style="text;html=1;align=center;verticalAlign=middle;whiteSpace=wrap;rounded=0;" parent="1" vertex="1">
          <mxGeometry x="550" y="430" width="60" height="30" as="geometry" />
        </mxCell>
        <mxCell id="vbGfuvybAaN1K-2_PYyb-289" value="User" style="shape=umlActor;verticalLabelPosition=bottom;verticalAlign=top;html=1;outlineConnect=0;" parent="1" vertex="1">
          <mxGeometry x="1098" y="100" width="30" height="60" as="geometry" />
        </mxCell>
        <mxCell id="vbGfuvybAaN1K-2_PYyb-290" value="" style="endArrow=none;dashed=1;html=1;rounded=0;" parent="1" edge="1">
          <mxGeometry width="50" height="50" relative="1" as="geometry">
            <mxPoint x="1113" y="480" as="sourcePoint" />
            <mxPoint x="1112.5" y="190" as="targetPoint" />
          </mxGeometry>
        </mxCell>
        <mxCell id="vbGfuvybAaN1K-2_PYyb-291" value=":UserUI" style="rounded=1;whiteSpace=wrap;html=1;" parent="1" vertex="1">
          <mxGeometry x="1198" y="140" width="80" height="40" as="geometry" />
        </mxCell>
        <mxCell id="vbGfuvybAaN1K-2_PYyb-292" value="EnterForget&lt;div&gt;PasswordSystem()&lt;/div&gt;" style="endArrow=classic;html=1;rounded=0;entryX=0;entryY=0.333;entryDx=0;entryDy=0;entryPerimeter=0;" parent="1" target="vbGfuvybAaN1K-2_PYyb-295" edge="1">
          <mxGeometry y="10" width="50" height="50" relative="1" as="geometry">
            <mxPoint x="1118" y="210" as="sourcePoint" />
            <mxPoint x="1228" y="210" as="targetPoint" />
            <mxPoint as="offset" />
          </mxGeometry>
        </mxCell>
        <mxCell id="vbGfuvybAaN1K-2_PYyb-293" value="" style="endArrow=none;dashed=1;html=1;rounded=0;" parent="1" source="vbGfuvybAaN1K-2_PYyb-295" edge="1">
          <mxGeometry width="50" height="50" relative="1" as="geometry">
            <mxPoint x="1238" y="540" as="sourcePoint" />
            <mxPoint x="1238" y="190" as="targetPoint" />
          </mxGeometry>
        </mxCell>
        <mxCell id="vbGfuvybAaN1K-2_PYyb-294" value="" style="endArrow=none;dashed=1;html=1;rounded=0;" parent="1" target="vbGfuvybAaN1K-2_PYyb-295" edge="1">
          <mxGeometry width="50" height="50" relative="1" as="geometry">
            <mxPoint x="1238" y="480" as="sourcePoint" />
            <mxPoint x="1238" y="190" as="targetPoint" />
          </mxGeometry>
        </mxCell>
        <mxCell id="vbGfuvybAaN1K-2_PYyb-295" value="" style="rounded=0;whiteSpace=wrap;html=1;" parent="1" vertex="1">
          <mxGeometry x="1233" y="200" width="10" height="30" as="geometry" />
        </mxCell>
        <mxCell id="vbGfuvybAaN1K-2_PYyb-296" value="ShowUserUI()" style="endArrow=classic;html=1;rounded=0;dashed=1;" parent="1" edge="1">
          <mxGeometry x="-0.0526" y="14" width="50" height="50" relative="1" as="geometry">
            <mxPoint x="1233" y="219.5" as="sourcePoint" />
            <mxPoint x="1119" y="219.5" as="targetPoint" />
            <mxPoint as="offset" />
          </mxGeometry>
        </mxCell>
        <mxCell id="vbGfuvybAaN1K-2_PYyb-297" value=":&lt;span style=&quot;font-size: 11px; text-wrap: nowrap; background-color: rgb(255, 255, 255);&quot;&gt;Login Page&lt;/span&gt;" style="rounded=1;whiteSpace=wrap;html=1;" parent="1" vertex="1">
          <mxGeometry x="1328" y="140" width="80" height="40" as="geometry" />
        </mxCell>
        <mxCell id="vbGfuvybAaN1K-2_PYyb-298" value="" style="rounded=0;whiteSpace=wrap;html=1;" parent="1" vertex="1">
          <mxGeometry x="1233" y="280" width="10" height="130" as="geometry" />
        </mxCell>
        <mxCell id="vbGfuvybAaN1K-2_PYyb-299" value="" style="endArrow=none;dashed=1;html=1;rounded=0;" parent="1" source="vbGfuvybAaN1K-2_PYyb-301" target="vbGfuvybAaN1K-2_PYyb-297" edge="1">
          <mxGeometry width="50" height="50" relative="1" as="geometry">
            <mxPoint x="1367.5" y="540" as="sourcePoint" />
            <mxPoint x="1367.5" y="240" as="targetPoint" />
          </mxGeometry>
        </mxCell>
        <mxCell id="vbGfuvybAaN1K-2_PYyb-300" value="" style="endArrow=none;dashed=1;html=1;rounded=0;" parent="1" target="vbGfuvybAaN1K-2_PYyb-301" edge="1">
          <mxGeometry width="50" height="50" relative="1" as="geometry">
            <mxPoint x="1368" y="480" as="sourcePoint" />
            <mxPoint x="1367.5" y="240" as="targetPoint" />
          </mxGeometry>
        </mxCell>
        <mxCell id="vbGfuvybAaN1K-2_PYyb-301" value="" style="rounded=0;whiteSpace=wrap;html=1;" parent="1" vertex="1">
          <mxGeometry x="1363" y="290" width="10" height="30" as="geometry" />
        </mxCell>
        <mxCell id="vbGfuvybAaN1K-2_PYyb-302" value="ClickLoginButton()" style="endArrow=classic;html=1;rounded=0;exitX=1.1;exitY=0.048;exitDx=0;exitDy=0;exitPerimeter=0;entryX=0;entryY=0;entryDx=0;entryDy=0;" parent="1" edge="1">
          <mxGeometry x="0.0599" y="10" width="50" height="50" relative="1" as="geometry">
            <mxPoint x="1246" y="300.03999999999996" as="sourcePoint" />
            <mxPoint x="1363" y="300" as="targetPoint" />
            <mxPoint as="offset" />
          </mxGeometry>
        </mxCell>
        <mxCell id="vbGfuvybAaN1K-2_PYyb-303" value="ShowUserUI()" style="endArrow=classic;html=1;rounded=0;dashed=1;" parent="1" edge="1">
          <mxGeometry x="-0.0526" y="14" width="50" height="50" relative="1" as="geometry">
            <mxPoint x="1357" y="310" as="sourcePoint" />
            <mxPoint x="1243" y="310" as="targetPoint" />
            <mxPoint as="offset" />
          </mxGeometry>
        </mxCell>
        <mxCell id="vbGfuvybAaN1K-2_PYyb-308" value=":&lt;span style=&quot;text-wrap: nowrap;&quot;&gt;Forget&lt;/span&gt;&lt;div&gt;&lt;span style=&quot;text-wrap: nowrap; background-color: initial;&quot;&gt;Password&amp;nbsp;&lt;/span&gt;&lt;div&gt;&lt;span style=&quot;text-wrap: nowrap;&quot;&gt;Page&lt;/span&gt;&lt;/div&gt;&lt;/div&gt;" style="rounded=1;whiteSpace=wrap;html=1;" parent="1" vertex="1">
          <mxGeometry x="1470" y="140" width="80" height="45" as="geometry" />
        </mxCell>
        <mxCell id="vbGfuvybAaN1K-2_PYyb-309" value="" style="endArrow=none;dashed=1;html=1;rounded=0;entryX=0.5;entryY=1;entryDx=0;entryDy=0;" parent="1" target="vbGfuvybAaN1K-2_PYyb-308" edge="1">
          <mxGeometry width="50" height="50" relative="1" as="geometry">
            <mxPoint x="1510" y="480" as="sourcePoint" />
            <mxPoint x="1510" y="450" as="targetPoint" />
          </mxGeometry>
        </mxCell>
        <mxCell id="vbGfuvybAaN1K-2_PYyb-310" value="ClickForgetPasswordButton()" style="endArrow=classic;html=1;rounded=0;exitX=1.1;exitY=0.048;exitDx=0;exitDy=0;exitPerimeter=0;" parent="1" edge="1">
          <mxGeometry x="0.0584" y="10" width="50" height="50" relative="1" as="geometry">
            <mxPoint x="1247" y="362.03999999999996" as="sourcePoint" />
            <mxPoint x="1504" y="362" as="targetPoint" />
            <mxPoint as="offset" />
          </mxGeometry>
        </mxCell>
        <mxCell id="vbGfuvybAaN1K-2_PYyb-311" value="" style="rounded=0;whiteSpace=wrap;html=1;" parent="1" vertex="1">
          <mxGeometry x="1509" y="352" width="10" height="30" as="geometry" />
        </mxCell>
        <mxCell id="vbGfuvybAaN1K-2_PYyb-312" value="User" style="shape=umlActor;verticalLabelPosition=bottom;verticalAlign=top;html=1;outlineConnect=0;" parent="1" vertex="1">
          <mxGeometry x="110" y="820" width="30" height="60" as="geometry" />
        </mxCell>
        <mxCell id="vbGfuvybAaN1K-2_PYyb-313" value="ShowForgetPasswordPage()" style="endArrow=none;html=1;rounded=0;exitX=1.1;exitY=0.048;exitDx=0;exitDy=0;exitPerimeter=0;endFill=0;startArrow=classic;startFill=1;dashed=1;" parent="1" edge="1">
          <mxGeometry x="0.0272" y="-10" width="50" height="50" relative="1" as="geometry">
            <mxPoint x="1252" y="372.03999999999996" as="sourcePoint" />
            <mxPoint x="1509" y="372" as="targetPoint" />
            <mxPoint as="offset" />
          </mxGeometry>
        </mxCell>
        <mxCell id="vbGfuvybAaN1K-2_PYyb-314" value="" style="endArrow=none;dashed=1;html=1;rounded=0;" parent="1" edge="1">
          <mxGeometry width="50" height="50" relative="1" as="geometry">
            <mxPoint x="125" y="1330" as="sourcePoint" />
            <mxPoint x="124.5" y="840" as="targetPoint" />
          </mxGeometry>
        </mxCell>
        <mxCell id="vbGfuvybAaN1K-2_PYyb-315" value=":UserUI" style="rounded=1;whiteSpace=wrap;html=1;" parent="1" vertex="1">
          <mxGeometry x="210" y="860" width="80" height="40" as="geometry" />
        </mxCell>
        <mxCell id="vbGfuvybAaN1K-2_PYyb-316" value="EnterSearchPage()" style="endArrow=classic;html=1;rounded=0;entryX=0;entryY=0.333;entryDx=0;entryDy=0;entryPerimeter=0;" parent="1" target="vbGfuvybAaN1K-2_PYyb-319" edge="1">
          <mxGeometry x="0.0087" y="10" width="50" height="50" relative="1" as="geometry">
            <mxPoint x="130" y="930" as="sourcePoint" />
            <mxPoint x="240" y="930" as="targetPoint" />
            <mxPoint as="offset" />
          </mxGeometry>
        </mxCell>
        <mxCell id="vbGfuvybAaN1K-2_PYyb-317" value="" style="endArrow=none;dashed=1;html=1;rounded=0;" parent="1" source="vbGfuvybAaN1K-2_PYyb-319" target="vbGfuvybAaN1K-2_PYyb-315" edge="1">
          <mxGeometry width="50" height="50" relative="1" as="geometry">
            <mxPoint x="250" y="1260" as="sourcePoint" />
            <mxPoint x="250" y="910" as="targetPoint" />
          </mxGeometry>
        </mxCell>
        <mxCell id="vbGfuvybAaN1K-2_PYyb-318" value="" style="endArrow=none;dashed=1;html=1;rounded=0;" parent="1" target="vbGfuvybAaN1K-2_PYyb-319" edge="1">
          <mxGeometry width="50" height="50" relative="1" as="geometry">
            <mxPoint x="251" y="1330" as="sourcePoint" />
            <mxPoint x="250" y="910" as="targetPoint" />
          </mxGeometry>
        </mxCell>
        <mxCell id="vbGfuvybAaN1K-2_PYyb-319" value="" style="rounded=0;whiteSpace=wrap;html=1;" parent="1" vertex="1">
          <mxGeometry x="245" y="920" width="10" height="30" as="geometry" />
        </mxCell>
        <mxCell id="vbGfuvybAaN1K-2_PYyb-320" value="ShowUserUI()" style="endArrow=classic;html=1;rounded=0;dashed=1;" parent="1" edge="1">
          <mxGeometry x="-0.0526" y="14" width="50" height="50" relative="1" as="geometry">
            <mxPoint x="245" y="939.5" as="sourcePoint" />
            <mxPoint x="131" y="939.5" as="targetPoint" />
            <mxPoint as="offset" />
          </mxGeometry>
        </mxCell>
        <mxCell id="vbGfuvybAaN1K-2_PYyb-321" value=":&lt;span style=&quot;font-size: 11px; text-wrap: nowrap; background-color: rgb(255, 255, 255);&quot;&gt;Search&lt;/span&gt;&lt;span style=&quot;font-size: 11px; text-wrap: nowrap; background-color: rgb(255, 255, 255);&quot;&gt;&amp;nbsp;&lt;/span&gt;&lt;span style=&quot;background-color: rgb(255, 255, 255); font-size: 11px; text-wrap: nowrap;&quot;&gt;Page&lt;/span&gt;" style="rounded=1;whiteSpace=wrap;html=1;" parent="1" vertex="1">
          <mxGeometry x="340" y="860" width="80" height="40" as="geometry" />
        </mxCell>
        <mxCell id="vbGfuvybAaN1K-2_PYyb-322" value="" style="rounded=0;whiteSpace=wrap;html=1;" parent="1" vertex="1">
          <mxGeometry x="245" y="1000" width="10" height="300" as="geometry" />
        </mxCell>
        <mxCell id="vbGfuvybAaN1K-2_PYyb-323" value="" style="endArrow=none;dashed=1;html=1;rounded=0;" parent="1" source="hhbA0WCjUp_SG_yH-NSP-52" target="vbGfuvybAaN1K-2_PYyb-402" edge="1">
          <mxGeometry width="50" height="50" relative="1" as="geometry">
            <mxPoint x="381" y="1570" as="sourcePoint" />
            <mxPoint x="380" y="1040" as="targetPoint" />
          </mxGeometry>
        </mxCell>
        <mxCell id="vbGfuvybAaN1K-2_PYyb-324" value="EnterVerifyEmail()" style="endArrow=classic;html=1;rounded=0;exitX=1.1;exitY=0.048;exitDx=0;exitDy=0;exitPerimeter=0;" parent="1" edge="1">
          <mxGeometry x="0.0584" y="10" width="50" height="50" relative="1" as="geometry">
            <mxPoint x="1243" y="404.53999999999996" as="sourcePoint" />
            <mxPoint x="1640" y="404.5" as="targetPoint" />
            <mxPoint as="offset" />
          </mxGeometry>
        </mxCell>
        <mxCell id="vbGfuvybAaN1K-2_PYyb-325" value=":&lt;span style=&quot;text-wrap: nowrap;&quot;&gt;system&lt;/span&gt;" style="rounded=1;whiteSpace=wrap;html=1;" parent="1" vertex="1">
          <mxGeometry x="1610" y="140" width="80" height="45" as="geometry" />
        </mxCell>
        <mxCell id="vbGfuvybAaN1K-2_PYyb-326" value="" style="endArrow=none;dashed=1;html=1;rounded=0;entryX=0.5;entryY=1;entryDx=0;entryDy=0;" parent="1" source="vbGfuvybAaN1K-2_PYyb-328" target="vbGfuvybAaN1K-2_PYyb-325" edge="1">
          <mxGeometry width="50" height="50" relative="1" as="geometry">
            <mxPoint x="1650" y="780" as="sourcePoint" />
            <mxPoint x="1650" y="450" as="targetPoint" />
          </mxGeometry>
        </mxCell>
        <mxCell id="vbGfuvybAaN1K-2_PYyb-327" value="" style="endArrow=none;dashed=1;html=1;rounded=0;entryX=0.5;entryY=1;entryDx=0;entryDy=0;" parent="1" target="vbGfuvybAaN1K-2_PYyb-328" edge="1">
          <mxGeometry width="50" height="50" relative="1" as="geometry">
            <mxPoint x="1649" y="480" as="sourcePoint" />
            <mxPoint x="1650" y="185" as="targetPoint" />
          </mxGeometry>
        </mxCell>
        <mxCell id="vbGfuvybAaN1K-2_PYyb-328" value="" style="rounded=0;whiteSpace=wrap;html=1;" parent="1" vertex="1">
          <mxGeometry x="1644" y="390" width="10" height="50" as="geometry" />
        </mxCell>
        <mxCell id="vbGfuvybAaN1K-2_PYyb-329" value="ShowResetPasswordToEmail()" style="endArrow=classic;html=1;rounded=0;dashed=1;" parent="1" edge="1">
          <mxGeometry x="-0.0526" y="14" width="50" height="50" relative="1" as="geometry">
            <mxPoint x="1639" y="429" as="sourcePoint" />
            <mxPoint x="1117" y="429" as="targetPoint" />
            <mxPoint as="offset" />
          </mxGeometry>
        </mxCell>
        <mxCell id="vbGfuvybAaN1K-2_PYyb-359" value="ClickSearchButton()" style="endArrow=classic;html=1;rounded=0;" parent="1" edge="1">
          <mxGeometry x="0.0599" y="10" width="50" height="50" relative="1" as="geometry">
            <mxPoint x="255" y="1010" as="sourcePoint" />
            <mxPoint x="377" y="1010" as="targetPoint" />
            <mxPoint as="offset" />
          </mxGeometry>
        </mxCell>
        <mxCell id="vbGfuvybAaN1K-2_PYyb-360" value="ReturnSuccess&lt;div&gt;MessageAndShowSearchResults()&lt;/div&gt;" style="endArrow=classic;html=1;rounded=0;dashed=1;entryX=1.18;entryY=0.663;entryDx=0;entryDy=0;entryPerimeter=0;" parent="1" target="vbGfuvybAaN1K-2_PYyb-322" edge="1">
          <mxGeometry x="-0.0526" y="14" width="50" height="50" relative="1" as="geometry">
            <mxPoint x="804.15" y="1200" as="sourcePoint" />
            <mxPoint x="391.15" y="1200" as="targetPoint" />
            <mxPoint as="offset" />
          </mxGeometry>
        </mxCell>
        <mxCell id="vbGfuvybAaN1K-2_PYyb-361" value="ReturnFailMessage()" style="endArrow=classic;html=1;rounded=0;dashed=1;" parent="1" edge="1">
          <mxGeometry x="-0.0526" y="14" width="50" height="50" relative="1" as="geometry">
            <mxPoint x="359" y="446" as="sourcePoint" />
            <mxPoint x="245" y="446" as="targetPoint" />
            <mxPoint as="offset" />
          </mxGeometry>
        </mxCell>
        <mxCell id="vbGfuvybAaN1K-2_PYyb-362" value="[查詢成功]" style="text;html=1;align=center;verticalAlign=middle;whiteSpace=wrap;rounded=0;" parent="1" vertex="1">
          <mxGeometry x="185.15" y="1210" width="60" height="30" as="geometry" />
        </mxCell>
        <mxCell id="vbGfuvybAaN1K-2_PYyb-363" value="[查詢失敗]" style="text;html=1;align=center;verticalAlign=middle;whiteSpace=wrap;rounded=0;" parent="1" vertex="1">
          <mxGeometry x="184.15" y="1245" width="60" height="30" as="geometry" />
        </mxCell>
        <mxCell id="vbGfuvybAaN1K-2_PYyb-374" value=":ChooseCity&lt;span style=&quot;font-size: 11px; text-wrap: nowrap; background-color: rgb(255, 255, 255);&quot;&gt;&amp;nbsp;&lt;/span&gt;&lt;div&gt;&lt;span style=&quot;font-size: 11px; text-wrap: nowrap; background-color: rgb(255, 255, 255);&quot;&gt;Page&lt;/span&gt;&lt;/div&gt;" style="rounded=1;whiteSpace=wrap;html=1;" parent="1" vertex="1">
          <mxGeometry x="486.5" y="860" width="80" height="40" as="geometry" />
        </mxCell>
        <mxCell id="vbGfuvybAaN1K-2_PYyb-377" value="" style="endArrow=none;dashed=1;html=1;rounded=0;entryX=0.5;entryY=1;entryDx=0;entryDy=0;" parent="1" source="hhbA0WCjUp_SG_yH-NSP-41" target="vbGfuvybAaN1K-2_PYyb-374" edge="1">
          <mxGeometry width="50" height="50" relative="1" as="geometry">
            <mxPoint x="530" y="1460" as="sourcePoint" />
            <mxPoint x="521" y="900" as="targetPoint" />
          </mxGeometry>
        </mxCell>
        <mxCell id="vbGfuvybAaN1K-2_PYyb-384" value="註冊" style="text;html=1;align=center;verticalAlign=middle;whiteSpace=wrap;rounded=0;fontSize=20;" parent="1" vertex="1">
          <mxGeometry x="164" y="50" width="46" height="30" as="geometry" />
        </mxCell>
        <mxCell id="vbGfuvybAaN1K-2_PYyb-385" value="&lt;font style=&quot;font-size: 20px;&quot;&gt;登入&lt;/font&gt;" style="text;html=1;align=center;verticalAlign=middle;whiteSpace=wrap;rounded=0;" parent="1" vertex="1">
          <mxGeometry x="712.5" y="50" width="60" height="30" as="geometry" />
        </mxCell>
        <mxCell id="vbGfuvybAaN1K-2_PYyb-386" value="&lt;font style=&quot;font-size: 20px;&quot;&gt;忘記密碼&lt;/font&gt;" style="text;html=1;align=center;verticalAlign=middle;whiteSpace=wrap;rounded=0;" parent="1" vertex="1">
          <mxGeometry x="1328" y="50" width="100" height="30" as="geometry" />
        </mxCell>
        <mxCell id="vbGfuvybAaN1K-2_PYyb-389" value="User" style="shape=umlActor;verticalLabelPosition=bottom;verticalAlign=top;html=1;outlineConnect=0;" parent="1" vertex="1">
          <mxGeometry x="1096" y="820" width="30" height="60" as="geometry" />
        </mxCell>
        <mxCell id="vbGfuvybAaN1K-2_PYyb-390" value="" style="endArrow=none;dashed=1;html=1;rounded=0;" parent="1" edge="1">
          <mxGeometry width="50" height="50" relative="1" as="geometry">
            <mxPoint x="1111" y="1270" as="sourcePoint" />
            <mxPoint x="1110.5" y="910" as="targetPoint" />
          </mxGeometry>
        </mxCell>
        <mxCell id="vbGfuvybAaN1K-2_PYyb-391" value=":UserUI" style="rounded=1;whiteSpace=wrap;html=1;" parent="1" vertex="1">
          <mxGeometry x="1196" y="860" width="80" height="40" as="geometry" />
        </mxCell>
        <mxCell id="vbGfuvybAaN1K-2_PYyb-392" value="" style="endArrow=none;dashed=1;html=1;rounded=0;entryX=0.5;entryY=1;entryDx=0;entryDy=0;" parent="1" target="vbGfuvybAaN1K-2_PYyb-391" edge="1">
          <mxGeometry width="50" height="50" relative="1" as="geometry">
            <mxPoint x="1236" y="1270" as="sourcePoint" />
            <mxPoint x="1236" y="910" as="targetPoint" />
          </mxGeometry>
        </mxCell>
        <mxCell id="vbGfuvybAaN1K-2_PYyb-393" value=":KeepPage" style="rounded=1;whiteSpace=wrap;html=1;" parent="1" vertex="1">
          <mxGeometry x="1440" y="860" width="80" height="40" as="geometry" />
        </mxCell>
        <mxCell id="vbGfuvybAaN1K-2_PYyb-394" value="" style="endArrow=none;dashed=1;html=1;rounded=0;" parent="1" source="hhbA0WCjUp_SG_yH-NSP-71" edge="1">
          <mxGeometry width="50" height="50" relative="1" as="geometry">
            <mxPoint x="1483" y="1230" as="sourcePoint" />
            <mxPoint x="1483" y="900" as="targetPoint" />
          </mxGeometry>
        </mxCell>
        <mxCell id="vbGfuvybAaN1K-2_PYyb-396" value="EnterKeepSystem()" style="endArrow=classic;html=1;rounded=0;" parent="1" edge="1">
          <mxGeometry x="0.0087" y="10" width="50" height="50" relative="1" as="geometry">
            <mxPoint x="1116" y="930" as="sourcePoint" />
            <mxPoint x="1230" y="930" as="targetPoint" />
            <mxPoint as="offset" />
          </mxGeometry>
        </mxCell>
        <mxCell id="vbGfuvybAaN1K-2_PYyb-397" value="" style="rounded=0;whiteSpace=wrap;html=1;" parent="1" vertex="1">
          <mxGeometry x="1231" y="920" width="10" height="340" as="geometry" />
        </mxCell>
        <mxCell id="vbGfuvybAaN1K-2_PYyb-398" value="ShowUserUI()" style="endArrow=classic;html=1;rounded=0;dashed=1;" parent="1" edge="1">
          <mxGeometry x="-0.0526" y="14" width="50" height="50" relative="1" as="geometry">
            <mxPoint x="1231" y="939.5" as="sourcePoint" />
            <mxPoint x="1117" y="939.5" as="targetPoint" />
            <mxPoint as="offset" />
          </mxGeometry>
        </mxCell>
        <mxCell id="vbGfuvybAaN1K-2_PYyb-399" value="" style="endArrow=none;dashed=1;html=1;rounded=0;entryX=0.5;entryY=1;entryDx=0;entryDy=0;" parent="1" source="vbGfuvybAaN1K-2_PYyb-404" target="vbGfuvybAaN1K-2_PYyb-321" edge="1">
          <mxGeometry width="50" height="50" relative="1" as="geometry">
            <mxPoint x="380" y="1080" as="sourcePoint" />
            <mxPoint x="381" y="900" as="targetPoint" />
          </mxGeometry>
        </mxCell>
        <mxCell id="vbGfuvybAaN1K-2_PYyb-400" value="ShowSearchPage()" style="endArrow=classic;html=1;rounded=0;dashed=1;" parent="1" edge="1">
          <mxGeometry x="-0.0226" y="10" width="50" height="50" relative="1" as="geometry">
            <mxPoint x="371" y="1020" as="sourcePoint" />
            <mxPoint x="255" y="1020" as="targetPoint" />
            <mxPoint as="offset" />
          </mxGeometry>
        </mxCell>
        <mxCell id="vbGfuvybAaN1K-2_PYyb-402" value="" style="rounded=0;whiteSpace=wrap;html=1;" parent="1" vertex="1">
          <mxGeometry x="375" y="1050" width="10" height="120" as="geometry" />
        </mxCell>
        <mxCell id="vbGfuvybAaN1K-2_PYyb-403" value="" style="endArrow=none;dashed=1;html=1;rounded=0;entryX=0.437;entryY=1.035;entryDx=0;entryDy=0;entryPerimeter=0;" parent="1" source="vbGfuvybAaN1K-2_PYyb-402" target="vbGfuvybAaN1K-2_PYyb-404" edge="1">
          <mxGeometry width="50" height="50" relative="1" as="geometry">
            <mxPoint x="380" y="1080" as="sourcePoint" />
            <mxPoint x="380" y="901" as="targetPoint" />
          </mxGeometry>
        </mxCell>
        <mxCell id="vbGfuvybAaN1K-2_PYyb-404" value="" style="rounded=0;whiteSpace=wrap;html=1;" parent="1" vertex="1">
          <mxGeometry x="375" y="1000" width="10" height="30" as="geometry" />
        </mxCell>
        <mxCell id="vbGfuvybAaN1K-2_PYyb-405" value="ClickChooseCityButton()" style="endArrow=classic;html=1;rounded=0;entryX=-0.23;entryY=0.14;entryDx=0;entryDy=0;entryPerimeter=0;" parent="1" target="hhbA0WCjUp_SG_yH-NSP-41" edge="1">
          <mxGeometry x="0.0599" y="10" width="50" height="50" relative="1" as="geometry">
            <mxPoint x="385" y="1059" as="sourcePoint" />
            <mxPoint x="499" y="1059" as="targetPoint" />
            <mxPoint as="offset" />
          </mxGeometry>
        </mxCell>
        <mxCell id="vbGfuvybAaN1K-2_PYyb-406" value="SendSearchRequest()" style="endArrow=classic;html=1;rounded=0;" parent="1" edge="1">
          <mxGeometry x="0.0599" y="10" width="50" height="50" relative="1" as="geometry">
            <mxPoint x="677.5" y="1160" as="sourcePoint" />
            <mxPoint x="800" y="1160" as="targetPoint" />
            <mxPoint as="offset" />
          </mxGeometry>
        </mxCell>
        <mxCell id="vbGfuvybAaN1K-2_PYyb-407" value=":System" style="rounded=1;whiteSpace=wrap;html=1;" parent="1" vertex="1">
          <mxGeometry x="771" y="860" width="80" height="40" as="geometry" />
        </mxCell>
        <mxCell id="vbGfuvybAaN1K-2_PYyb-408" value="" style="endArrow=none;dashed=1;html=1;rounded=0;entryX=0.5;entryY=1;entryDx=0;entryDy=0;" parent="1" target="vbGfuvybAaN1K-2_PYyb-407" edge="1">
          <mxGeometry width="50" height="50" relative="1" as="geometry">
            <mxPoint x="811" y="1330" as="sourcePoint" />
            <mxPoint x="805.5" y="900" as="targetPoint" />
          </mxGeometry>
        </mxCell>
        <mxCell id="vbGfuvybAaN1K-2_PYyb-409" value="" style="rounded=0;whiteSpace=wrap;html=1;" parent="1" vertex="1">
          <mxGeometry x="806" y="1050" width="10" height="250" as="geometry" />
        </mxCell>
        <mxCell id="vbGfuvybAaN1K-2_PYyb-410" value="" style="endArrow=none;dashed=1;html=1;rounded=0;entryX=1.001;entryY=0.567;entryDx=0;entryDy=0;entryPerimeter=0;exitX=0.005;exitY=0.567;exitDx=0;exitDy=0;exitPerimeter=0;" parent="1" source="vbGfuvybAaN1K-2_PYyb-240" target="vbGfuvybAaN1K-2_PYyb-240" edge="1">
          <mxGeometry width="50" height="50" relative="1" as="geometry">
            <mxPoint x="181.15" y="1242" as="sourcePoint" />
            <mxPoint x="601.15" y="1240" as="targetPoint" />
          </mxGeometry>
        </mxCell>
        <mxCell id="vbGfuvybAaN1K-2_PYyb-437" value=":system" style="rounded=1;whiteSpace=wrap;html=1;" parent="1" vertex="1">
          <mxGeometry x="1550" y="860" width="80" height="40" as="geometry" />
        </mxCell>
        <mxCell id="vbGfuvybAaN1K-2_PYyb-438" value="" style="endArrow=none;dashed=1;html=1;rounded=0;" parent="1" source="hhbA0WCjUp_SG_yH-NSP-65" edge="1">
          <mxGeometry width="50" height="50" relative="1" as="geometry">
            <mxPoint x="1591" y="1070" as="sourcePoint" />
            <mxPoint x="1590.99" y="900" as="targetPoint" />
          </mxGeometry>
        </mxCell>
        <mxCell id="vbGfuvybAaN1K-2_PYyb-474" value="搜尋房屋-房客" style="text;html=1;align=center;verticalAlign=middle;whiteSpace=wrap;rounded=0;fontSize=20;" parent="1" vertex="1">
          <mxGeometry x="405.5" y="780" width="144.5" height="30" as="geometry" />
        </mxCell>
        <mxCell id="vbGfuvybAaN1K-2_PYyb-475" value="&lt;span style=&quot;font-size: 20px;&quot;&gt;收藏$刪除收藏房屋-房客&lt;/span&gt;" style="text;html=1;align=center;verticalAlign=middle;whiteSpace=wrap;rounded=0;" parent="1" vertex="1">
          <mxGeometry x="1118" y="740" width="222" height="30" as="geometry" />
        </mxCell>
        <mxCell id="hhbA0WCjUp_SG_yH-NSP-2" value="User" style="shape=umlActor;verticalLabelPosition=bottom;verticalAlign=top;html=1;outlineConnect=0;" parent="1" vertex="1">
          <mxGeometry x="1810" y="100" width="30" height="60" as="geometry" />
        </mxCell>
        <mxCell id="hhbA0WCjUp_SG_yH-NSP-3" value="" style="endArrow=none;dashed=1;html=1;rounded=0;" parent="1" edge="1">
          <mxGeometry width="50" height="50" relative="1" as="geometry">
            <mxPoint x="1825" y="540" as="sourcePoint" />
            <mxPoint x="1824.5" y="190" as="targetPoint" />
          </mxGeometry>
        </mxCell>
        <mxCell id="hhbA0WCjUp_SG_yH-NSP-4" value=":UserUI" style="rounded=1;whiteSpace=wrap;html=1;" parent="1" vertex="1">
          <mxGeometry x="1910" y="140" width="80" height="40" as="geometry" />
        </mxCell>
        <mxCell id="hhbA0WCjUp_SG_yH-NSP-5" value="EnterLoginSystem()" style="endArrow=classic;html=1;rounded=0;entryX=0;entryY=0.333;entryDx=0;entryDy=0;entryPerimeter=0;" parent="1" target="hhbA0WCjUp_SG_yH-NSP-8" edge="1">
          <mxGeometry y="10" width="50" height="50" relative="1" as="geometry">
            <mxPoint x="1830" y="210" as="sourcePoint" />
            <mxPoint x="1940" y="210" as="targetPoint" />
            <mxPoint as="offset" />
          </mxGeometry>
        </mxCell>
        <mxCell id="hhbA0WCjUp_SG_yH-NSP-6" value="" style="endArrow=none;dashed=1;html=1;rounded=0;" parent="1" source="hhbA0WCjUp_SG_yH-NSP-8" edge="1">
          <mxGeometry width="50" height="50" relative="1" as="geometry">
            <mxPoint x="1950" y="540" as="sourcePoint" />
            <mxPoint x="1950" y="190" as="targetPoint" />
          </mxGeometry>
        </mxCell>
        <mxCell id="hhbA0WCjUp_SG_yH-NSP-7" value="" style="endArrow=none;dashed=1;html=1;rounded=0;" parent="1" target="hhbA0WCjUp_SG_yH-NSP-8" edge="1">
          <mxGeometry width="50" height="50" relative="1" as="geometry">
            <mxPoint x="1950" y="720" as="sourcePoint" />
            <mxPoint x="1950" y="190" as="targetPoint" />
          </mxGeometry>
        </mxCell>
        <mxCell id="hhbA0WCjUp_SG_yH-NSP-8" value="" style="rounded=0;whiteSpace=wrap;html=1;" parent="1" vertex="1">
          <mxGeometry x="1945" y="200" width="10" height="30" as="geometry" />
        </mxCell>
        <mxCell id="hhbA0WCjUp_SG_yH-NSP-9" value="ShowUserUI()" style="endArrow=classic;html=1;rounded=0;dashed=1;" parent="1" edge="1">
          <mxGeometry x="-0.0526" y="14" width="50" height="50" relative="1" as="geometry">
            <mxPoint x="1945" y="219.5" as="sourcePoint" />
            <mxPoint x="1831" y="219.5" as="targetPoint" />
            <mxPoint as="offset" />
          </mxGeometry>
        </mxCell>
        <mxCell id="hhbA0WCjUp_SG_yH-NSP-10" value=":Login&lt;span style=&quot;font-size: 11px; text-wrap: nowrap; background-color: rgb(255, 255, 255);&quot;&gt;&amp;nbsp;Page&lt;/span&gt;" style="rounded=1;whiteSpace=wrap;html=1;" parent="1" vertex="1">
          <mxGeometry x="2040" y="140" width="80" height="40" as="geometry" />
        </mxCell>
        <mxCell id="hhbA0WCjUp_SG_yH-NSP-11" value="" style="rounded=0;whiteSpace=wrap;html=1;" parent="1" vertex="1">
          <mxGeometry x="1945" y="280" width="10" height="190" as="geometry" />
        </mxCell>
        <mxCell id="hhbA0WCjUp_SG_yH-NSP-12" value="" style="endArrow=none;dashed=1;html=1;rounded=0;" parent="1" source="hhbA0WCjUp_SG_yH-NSP-14" target="hhbA0WCjUp_SG_yH-NSP-10" edge="1">
          <mxGeometry width="50" height="50" relative="1" as="geometry">
            <mxPoint x="2079.5" y="540" as="sourcePoint" />
            <mxPoint x="2079.5" y="240" as="targetPoint" />
          </mxGeometry>
        </mxCell>
        <mxCell id="hhbA0WCjUp_SG_yH-NSP-13" value="" style="endArrow=none;dashed=1;html=1;rounded=0;" parent="1" source="hhbA0WCjUp_SG_yH-NSP-19" target="hhbA0WCjUp_SG_yH-NSP-14" edge="1">
          <mxGeometry width="50" height="50" relative="1" as="geometry">
            <mxPoint x="2079.5" y="540" as="sourcePoint" />
            <mxPoint x="2079.5" y="240" as="targetPoint" />
          </mxGeometry>
        </mxCell>
        <mxCell id="hhbA0WCjUp_SG_yH-NSP-14" value="" style="rounded=0;whiteSpace=wrap;html=1;" parent="1" vertex="1">
          <mxGeometry x="2075" y="290" width="10" height="30" as="geometry" />
        </mxCell>
        <mxCell id="hhbA0WCjUp_SG_yH-NSP-15" value="ClickLoginButton()" style="endArrow=classic;html=1;rounded=0;exitX=1.1;exitY=0.048;exitDx=0;exitDy=0;exitPerimeter=0;entryX=0;entryY=0;entryDx=0;entryDy=0;" parent="1" edge="1">
          <mxGeometry x="0.0599" y="10" width="50" height="50" relative="1" as="geometry">
            <mxPoint x="1958" y="300.03999999999996" as="sourcePoint" />
            <mxPoint x="2075" y="300" as="targetPoint" />
            <mxPoint as="offset" />
          </mxGeometry>
        </mxCell>
        <mxCell id="hhbA0WCjUp_SG_yH-NSP-16" value="ShowUserUI()" style="endArrow=classic;html=1;rounded=0;dashed=1;" parent="1" edge="1">
          <mxGeometry x="-0.0526" y="14" width="50" height="50" relative="1" as="geometry">
            <mxPoint x="2069" y="310" as="sourcePoint" />
            <mxPoint x="1955" y="310" as="targetPoint" />
            <mxPoint as="offset" />
          </mxGeometry>
        </mxCell>
        <mxCell id="hhbA0WCjUp_SG_yH-NSP-17" value="Login(account,&lt;div&gt;password)&lt;/div&gt;" style="endArrow=classic;html=1;rounded=0;exitX=1.1;exitY=0.048;exitDx=0;exitDy=0;exitPerimeter=0;entryX=0;entryY=0;entryDx=0;entryDy=0;" parent="1" edge="1">
          <mxGeometry x="0.1112" y="17" width="50" height="50" relative="1" as="geometry">
            <mxPoint x="1955" y="370.03999999999996" as="sourcePoint" />
            <mxPoint x="2072" y="370" as="targetPoint" />
            <mxPoint as="offset" />
          </mxGeometry>
        </mxCell>
        <mxCell id="hhbA0WCjUp_SG_yH-NSP-18" value="" style="endArrow=none;dashed=1;html=1;rounded=0;" parent="1" target="hhbA0WCjUp_SG_yH-NSP-19" edge="1">
          <mxGeometry width="50" height="50" relative="1" as="geometry">
            <mxPoint x="2080" y="720" as="sourcePoint" />
            <mxPoint x="2080" y="320" as="targetPoint" />
          </mxGeometry>
        </mxCell>
        <mxCell id="hhbA0WCjUp_SG_yH-NSP-19" value="" style="rounded=0;whiteSpace=wrap;html=1;" parent="1" vertex="1">
          <mxGeometry x="2075" y="360" width="10" height="50" as="geometry" />
        </mxCell>
        <mxCell id="hhbA0WCjUp_SG_yH-NSP-22" value="ReturnSuccess&lt;div&gt;Message()&lt;/div&gt;" style="endArrow=classic;html=1;rounded=0;dashed=1;" parent="1" edge="1">
          <mxGeometry x="-0.0526" y="14" width="50" height="50" relative="1" as="geometry">
            <mxPoint x="2069" y="390" as="sourcePoint" />
            <mxPoint x="1955" y="390" as="targetPoint" />
            <mxPoint as="offset" />
          </mxGeometry>
        </mxCell>
        <mxCell id="hhbA0WCjUp_SG_yH-NSP-26" value="&lt;font style=&quot;font-size: 20px;&quot;&gt;登出&lt;/font&gt;" style="text;html=1;align=center;verticalAlign=middle;whiteSpace=wrap;rounded=0;" parent="1" vertex="1">
          <mxGeometry x="1932.5" y="50" width="60" height="30" as="geometry" />
        </mxCell>
        <mxCell id="hhbA0WCjUp_SG_yH-NSP-30" value=":Logout&lt;span style=&quot;font-size: 11px; text-wrap: nowrap; background-color: rgb(255, 255, 255);&quot;&gt;&amp;nbsp;Page&lt;/span&gt;" style="rounded=1;whiteSpace=wrap;html=1;" parent="1" vertex="1">
          <mxGeometry x="2170" y="142.5" width="80" height="40" as="geometry" />
        </mxCell>
        <mxCell id="hhbA0WCjUp_SG_yH-NSP-31" value="" style="endArrow=none;dashed=1;html=1;rounded=0;" parent="1" source="hhbA0WCjUp_SG_yH-NSP-33" target="hhbA0WCjUp_SG_yH-NSP-30" edge="1">
          <mxGeometry width="50" height="50" relative="1" as="geometry">
            <mxPoint x="2210" y="601.5999755859375" as="sourcePoint" />
            <mxPoint x="2209.5" y="242.5" as="targetPoint" />
          </mxGeometry>
        </mxCell>
        <mxCell id="hhbA0WCjUp_SG_yH-NSP-32" value="ClickLogoutButton()" style="endArrow=classic;html=1;rounded=0;exitX=1.1;exitY=0.048;exitDx=0;exitDy=0;exitPerimeter=0;" parent="1" edge="1">
          <mxGeometry x="0.1112" y="17" width="50" height="50" relative="1" as="geometry">
            <mxPoint x="1955" y="460.03999999999996" as="sourcePoint" />
            <mxPoint x="2200" y="460" as="targetPoint" />
            <mxPoint as="offset" />
          </mxGeometry>
        </mxCell>
        <mxCell id="hhbA0WCjUp_SG_yH-NSP-34" value="" style="endArrow=none;dashed=1;html=1;rounded=0;" parent="1" target="hhbA0WCjUp_SG_yH-NSP-33" edge="1">
          <mxGeometry width="50" height="50" relative="1" as="geometry">
            <mxPoint x="2210" y="601.5999755859375" as="sourcePoint" />
            <mxPoint x="2210" y="183" as="targetPoint" />
          </mxGeometry>
        </mxCell>
        <mxCell id="hhbA0WCjUp_SG_yH-NSP-33" value="" style="rounded=0;whiteSpace=wrap;html=1;" parent="1" vertex="1">
          <mxGeometry x="2205" y="450" width="10" height="50" as="geometry" />
        </mxCell>
        <mxCell id="hhbA0WCjUp_SG_yH-NSP-35" value="Clear token()" style="endArrow=classic;html=1;rounded=0;exitX=1.1;exitY=0.048;exitDx=0;exitDy=0;exitPerimeter=0;edgeStyle=orthogonalEdgeStyle;entryX=1;entryY=0.75;entryDx=0;entryDy=0;" parent="1" target="hhbA0WCjUp_SG_yH-NSP-33" edge="1">
          <mxGeometry x="0.1112" y="17" width="50" height="50" relative="1" as="geometry">
            <mxPoint x="2215" y="460.03999999999996" as="sourcePoint" />
            <mxPoint x="2320" y="460" as="targetPoint" />
            <mxPoint as="offset" />
            <Array as="points">
              <mxPoint x="2330" y="460" />
              <mxPoint x="2330" y="488" />
            </Array>
          </mxGeometry>
        </mxCell>
        <mxCell id="hhbA0WCjUp_SG_yH-NSP-36" value="ReturnSuccess&lt;div&gt;Message()&lt;/div&gt;" style="endArrow=classic;html=1;rounded=0;dashed=1;" parent="1" edge="1">
          <mxGeometry x="-0.0526" y="14" width="50" height="50" relative="1" as="geometry">
            <mxPoint x="2200" y="490" as="sourcePoint" />
            <mxPoint x="1830" y="490" as="targetPoint" />
            <mxPoint as="offset" />
          </mxGeometry>
        </mxCell>
        <mxCell id="hhbA0WCjUp_SG_yH-NSP-42" value="" style="endArrow=none;dashed=1;html=1;rounded=0;entryX=0.5;entryY=1;entryDx=0;entryDy=0;" parent="1" target="hhbA0WCjUp_SG_yH-NSP-41" edge="1">
          <mxGeometry width="50" height="50" relative="1" as="geometry">
            <mxPoint x="527" y="1330" as="sourcePoint" />
            <mxPoint x="527" y="900" as="targetPoint" />
          </mxGeometry>
        </mxCell>
        <mxCell id="hhbA0WCjUp_SG_yH-NSP-41" value="" style="rounded=0;whiteSpace=wrap;html=1;" parent="1" vertex="1">
          <mxGeometry x="521.5" y="1050" width="10" height="70" as="geometry" />
        </mxCell>
        <mxCell id="hhbA0WCjUp_SG_yH-NSP-43" value="EnterChooseSortButton()" style="endArrow=classic;html=1;rounded=0;" parent="1" edge="1">
          <mxGeometry x="0.0599" y="10" width="50" height="50" relative="1" as="geometry">
            <mxPoint x="531.5" y="1110" as="sourcePoint" />
            <mxPoint x="666.5" y="1110" as="targetPoint" />
            <mxPoint as="offset" />
          </mxGeometry>
        </mxCell>
        <mxCell id="hhbA0WCjUp_SG_yH-NSP-44" value=":ChooseSort&lt;span style=&quot;font-size: 11px; text-wrap: nowrap; background-color: rgb(255, 255, 255);&quot;&gt;&amp;nbsp;&lt;/span&gt;&lt;div&gt;&lt;span style=&quot;font-size: 11px; text-wrap: nowrap; background-color: rgb(255, 255, 255);&quot;&gt;Page&lt;/span&gt;&lt;/div&gt;" style="rounded=1;whiteSpace=wrap;html=1;" parent="1" vertex="1">
          <mxGeometry x="632.5" y="860" width="80" height="40" as="geometry" />
        </mxCell>
        <mxCell id="hhbA0WCjUp_SG_yH-NSP-45" value="" style="endArrow=none;dashed=1;html=1;rounded=0;entryX=0.5;entryY=1;entryDx=0;entryDy=0;" parent="1" source="hhbA0WCjUp_SG_yH-NSP-46" target="hhbA0WCjUp_SG_yH-NSP-44" edge="1">
          <mxGeometry width="50" height="50" relative="1" as="geometry">
            <mxPoint x="680" y="1460" as="sourcePoint" />
            <mxPoint x="667" y="900" as="targetPoint" />
          </mxGeometry>
        </mxCell>
        <mxCell id="hhbA0WCjUp_SG_yH-NSP-47" value="" style="endArrow=none;dashed=1;html=1;rounded=0;entryX=0.5;entryY=1;entryDx=0;entryDy=0;" parent="1" target="hhbA0WCjUp_SG_yH-NSP-46" edge="1">
          <mxGeometry width="50" height="50" relative="1" as="geometry">
            <mxPoint x="673" y="1330" as="sourcePoint" />
            <mxPoint x="673" y="900" as="targetPoint" />
          </mxGeometry>
        </mxCell>
        <mxCell id="hhbA0WCjUp_SG_yH-NSP-46" value="" style="rounded=0;whiteSpace=wrap;html=1;" parent="1" vertex="1">
          <mxGeometry x="667.5" y="1050" width="10" height="140" as="geometry" />
        </mxCell>
        <mxCell id="hhbA0WCjUp_SG_yH-NSP-49" value="ChooseCity()" style="endArrow=classic;html=1;rounded=0;edgeStyle=orthogonalEdgeStyle;entryX=1;entryY=0.5;entryDx=0;entryDy=0;" parent="1" target="hhbA0WCjUp_SG_yH-NSP-41" edge="1">
          <mxGeometry x="-0.3801" y="11" width="50" height="50" relative="1" as="geometry">
            <mxPoint x="532.5" y="1060" as="sourcePoint" />
            <mxPoint x="667.5" y="1060" as="targetPoint" />
            <mxPoint x="1" as="offset" />
            <Array as="points">
              <mxPoint x="533" y="1061" />
              <mxPoint x="630" y="1061" />
              <mxPoint x="630" y="1085" />
            </Array>
          </mxGeometry>
        </mxCell>
        <mxCell id="hhbA0WCjUp_SG_yH-NSP-50" value="ChooseSort()" style="endArrow=classic;html=1;rounded=0;edgeStyle=orthogonalEdgeStyle;entryX=1;entryY=0.5;entryDx=0;entryDy=0;" parent="1" edge="1">
          <mxGeometry x="-0.3801" y="11" width="50" height="50" relative="1" as="geometry">
            <mxPoint x="678" y="1113" as="sourcePoint" />
            <mxPoint x="677.5" y="1138" as="targetPoint" />
            <mxPoint x="1" as="offset" />
            <Array as="points">
              <mxPoint x="678.5" y="1114" />
              <mxPoint x="775.5" y="1114" />
              <mxPoint x="775.5" y="1138" />
            </Array>
          </mxGeometry>
        </mxCell>
        <mxCell id="hhbA0WCjUp_SG_yH-NSP-53" value="" style="endArrow=none;dashed=1;html=1;rounded=0;" parent="1" target="hhbA0WCjUp_SG_yH-NSP-52" edge="1">
          <mxGeometry width="50" height="50" relative="1" as="geometry">
            <mxPoint x="380" y="1330" as="sourcePoint" />
            <mxPoint x="380" y="1170" as="targetPoint" />
          </mxGeometry>
        </mxCell>
        <mxCell id="hhbA0WCjUp_SG_yH-NSP-52" value="" style="rounded=0;whiteSpace=wrap;html=1;" parent="1" vertex="1">
          <mxGeometry x="375" y="1240" width="10" height="30" as="geometry" />
        </mxCell>
        <mxCell id="hhbA0WCjUp_SG_yH-NSP-55" value=":HousePage" style="rounded=1;whiteSpace=wrap;html=1;" parent="1" vertex="1">
          <mxGeometry x="1321" y="860" width="80" height="40" as="geometry" />
        </mxCell>
        <mxCell id="hhbA0WCjUp_SG_yH-NSP-56" value="" style="endArrow=none;dashed=1;html=1;rounded=0;" parent="1" edge="1">
          <mxGeometry width="50" height="50" relative="1" as="geometry">
            <mxPoint x="1360" y="1270" as="sourcePoint" />
            <mxPoint x="1360" y="900" as="targetPoint" />
          </mxGeometry>
        </mxCell>
        <mxCell id="vbGfuvybAaN1K-2_PYyb-451" value="" style="rounded=0;whiteSpace=wrap;html=1;" parent="1" vertex="1">
          <mxGeometry x="1356" y="950" width="10" height="100" as="geometry" />
        </mxCell>
        <mxCell id="hhbA0WCjUp_SG_yH-NSP-60" value="ClickHouse()" style="endArrow=classic;html=1;rounded=0;" parent="1" edge="1">
          <mxGeometry x="0.0087" y="10" width="50" height="50" relative="1" as="geometry">
            <mxPoint x="1241" y="980" as="sourcePoint" />
            <mxPoint x="1355" y="980" as="targetPoint" />
            <mxPoint as="offset" />
          </mxGeometry>
        </mxCell>
        <mxCell id="hhbA0WCjUp_SG_yH-NSP-62" value="ClickKeepButton()" style="endArrow=classic;html=1;rounded=0;" parent="1" edge="1">
          <mxGeometry x="0.0087" y="10" width="50" height="50" relative="1" as="geometry">
            <mxPoint x="1365" y="1019" as="sourcePoint" />
            <mxPoint x="1580" y="1019" as="targetPoint" />
            <mxPoint as="offset" />
          </mxGeometry>
        </mxCell>
        <mxCell id="hhbA0WCjUp_SG_yH-NSP-64" value="ReturnSuccess&lt;div&gt;Message()&lt;/div&gt;" style="endArrow=classic;html=1;rounded=0;dashed=1;" parent="1" edge="1">
          <mxGeometry x="-0.0526" y="14" width="50" height="50" relative="1" as="geometry">
            <mxPoint x="1580" y="1038" as="sourcePoint" />
            <mxPoint x="1369" y="1038" as="targetPoint" />
            <mxPoint as="offset" />
          </mxGeometry>
        </mxCell>
        <mxCell id="hhbA0WCjUp_SG_yH-NSP-66" value="" style="endArrow=none;dashed=1;html=1;rounded=0;" parent="1" target="hhbA0WCjUp_SG_yH-NSP-65" edge="1">
          <mxGeometry width="50" height="50" relative="1" as="geometry">
            <mxPoint x="1589" y="1270" as="sourcePoint" />
            <mxPoint x="1590.99" y="900" as="targetPoint" />
          </mxGeometry>
        </mxCell>
        <mxCell id="hhbA0WCjUp_SG_yH-NSP-65" value="" style="rounded=0;whiteSpace=wrap;html=1;" parent="1" vertex="1">
          <mxGeometry x="1585" y="970" width="10" height="270" as="geometry" />
        </mxCell>
        <mxCell id="hhbA0WCjUp_SG_yH-NSP-69" value="ClickBack()" style="endArrow=classic;html=1;rounded=0;exitX=-0.32;exitY=0.922;exitDx=0;exitDy=0;exitPerimeter=0;" parent="1" source="vbGfuvybAaN1K-2_PYyb-451" edge="1">
          <mxGeometry x="0.0087" y="10" width="50" height="50" relative="1" as="geometry">
            <mxPoint x="1350" y="1040" as="sourcePoint" />
            <mxPoint x="1245" y="1042" as="targetPoint" />
            <mxPoint as="offset" />
          </mxGeometry>
        </mxCell>
        <mxCell id="hhbA0WCjUp_SG_yH-NSP-70" value="ClickKeepButton()" style="endArrow=classic;html=1;rounded=0;" parent="1" edge="1">
          <mxGeometry x="0.0087" y="10" width="50" height="50" relative="1" as="geometry">
            <mxPoint x="1251" y="1090" as="sourcePoint" />
            <mxPoint x="1478" y="1090" as="targetPoint" />
            <mxPoint as="offset" />
          </mxGeometry>
        </mxCell>
        <mxCell id="hhbA0WCjUp_SG_yH-NSP-72" value="" style="endArrow=none;dashed=1;html=1;rounded=0;" parent="1" target="hhbA0WCjUp_SG_yH-NSP-71" edge="1">
          <mxGeometry width="50" height="50" relative="1" as="geometry">
            <mxPoint x="1483" y="1270" as="sourcePoint" />
            <mxPoint x="1483" y="900" as="targetPoint" />
          </mxGeometry>
        </mxCell>
        <mxCell id="hhbA0WCjUp_SG_yH-NSP-71" value="" style="rounded=0;whiteSpace=wrap;html=1;" parent="1" vertex="1">
          <mxGeometry x="1478" y="1072" width="10" height="68" as="geometry" />
        </mxCell>
        <mxCell id="hhbA0WCjUp_SG_yH-NSP-73" value="ShowKeepPage()" style="endArrow=classic;html=1;rounded=0;dashed=1;startArrow=none;startFill=0;" parent="1" edge="1">
          <mxGeometry x="-0.0226" y="10" width="50" height="50" relative="1" as="geometry">
            <mxPoint x="1470" y="1118" as="sourcePoint" />
            <mxPoint x="1250" y="1118" as="targetPoint" />
            <mxPoint as="offset" />
          </mxGeometry>
        </mxCell>
        <mxCell id="hhbA0WCjUp_SG_yH-NSP-74" value="User" style="shape=umlActor;verticalLabelPosition=bottom;verticalAlign=top;html=1;outlineConnect=0;" parent="1" vertex="1">
          <mxGeometry x="174.31" y="1520" width="30" height="60" as="geometry" />
        </mxCell>
        <mxCell id="hhbA0WCjUp_SG_yH-NSP-75" value="" style="endArrow=none;dashed=1;html=1;rounded=0;" parent="1" edge="1">
          <mxGeometry width="50" height="50" relative="1" as="geometry">
            <mxPoint x="189" y="1930" as="sourcePoint" />
            <mxPoint x="188.81" y="1610" as="targetPoint" />
          </mxGeometry>
        </mxCell>
        <mxCell id="hhbA0WCjUp_SG_yH-NSP-76" value=":UserUI" style="rounded=1;whiteSpace=wrap;html=1;" parent="1" vertex="1">
          <mxGeometry x="274.31" y="1560" width="80" height="40" as="geometry" />
        </mxCell>
        <mxCell id="hhbA0WCjUp_SG_yH-NSP-77" value="" style="endArrow=none;dashed=1;html=1;rounded=0;entryX=0.5;entryY=1;entryDx=0;entryDy=0;" parent="1" target="hhbA0WCjUp_SG_yH-NSP-76" edge="1">
          <mxGeometry width="50" height="50" relative="1" as="geometry">
            <mxPoint x="314" y="1930" as="sourcePoint" />
            <mxPoint x="314.31" y="1610" as="targetPoint" />
          </mxGeometry>
        </mxCell>
        <mxCell id="hhbA0WCjUp_SG_yH-NSP-80" value="EnterRentSystem()" style="endArrow=classic;html=1;rounded=0;" parent="1" edge="1">
          <mxGeometry x="0.0087" y="10" width="50" height="50" relative="1" as="geometry">
            <mxPoint x="194.31" y="1630" as="sourcePoint" />
            <mxPoint x="308.31" y="1630" as="targetPoint" />
            <mxPoint as="offset" />
          </mxGeometry>
        </mxCell>
        <mxCell id="hhbA0WCjUp_SG_yH-NSP-81" value="" style="rounded=0;whiteSpace=wrap;html=1;" parent="1" vertex="1">
          <mxGeometry x="309.31" y="1620" width="10" height="300" as="geometry" />
        </mxCell>
        <mxCell id="hhbA0WCjUp_SG_yH-NSP-82" value="ShowUserUI()" style="endArrow=classic;html=1;rounded=0;dashed=1;" parent="1" edge="1">
          <mxGeometry x="-0.0526" y="14" width="50" height="50" relative="1" as="geometry">
            <mxPoint x="309.31" y="1639.5" as="sourcePoint" />
            <mxPoint x="195.31" y="1639.5" as="targetPoint" />
            <mxPoint as="offset" />
          </mxGeometry>
        </mxCell>
        <mxCell id="hhbA0WCjUp_SG_yH-NSP-83" value=":system" style="rounded=1;whiteSpace=wrap;html=1;" parent="1" vertex="1">
          <mxGeometry x="654.31" y="1560" width="80" height="40" as="geometry" />
        </mxCell>
        <mxCell id="hhbA0WCjUp_SG_yH-NSP-84" value="" style="endArrow=none;dashed=1;html=1;rounded=0;" parent="1" source="hhbA0WCjUp_SG_yH-NSP-94" edge="1">
          <mxGeometry width="50" height="50" relative="1" as="geometry">
            <mxPoint x="695.31" y="1770" as="sourcePoint" />
            <mxPoint x="695.2999999999997" y="1600" as="targetPoint" />
          </mxGeometry>
        </mxCell>
        <mxCell id="hhbA0WCjUp_SG_yH-NSP-85" value="&lt;span style=&quot;font-size: 20px;&quot;&gt;PO文&amp;amp;刪除PO文-房東&lt;/span&gt;" style="text;html=1;align=center;verticalAlign=middle;whiteSpace=wrap;rounded=0;" parent="1" vertex="1">
          <mxGeometry x="196.31" y="1440" width="203.69" height="30" as="geometry" />
        </mxCell>
        <mxCell id="hhbA0WCjUp_SG_yH-NSP-86" value=":RentPage" style="rounded=1;whiteSpace=wrap;html=1;" parent="1" vertex="1">
          <mxGeometry x="399.31" y="1560" width="80" height="40" as="geometry" />
        </mxCell>
        <mxCell id="hhbA0WCjUp_SG_yH-NSP-87" value="" style="endArrow=none;dashed=1;html=1;rounded=0;" parent="1" edge="1">
          <mxGeometry width="50" height="50" relative="1" as="geometry">
            <mxPoint x="440" y="1930" as="sourcePoint" />
            <mxPoint x="438.31" y="1600" as="targetPoint" />
          </mxGeometry>
        </mxCell>
        <mxCell id="hhbA0WCjUp_SG_yH-NSP-88" value="" style="rounded=0;whiteSpace=wrap;html=1;" parent="1" vertex="1">
          <mxGeometry x="434.31" y="1650" width="10" height="240" as="geometry" />
        </mxCell>
        <mxCell id="hhbA0WCjUp_SG_yH-NSP-89" value="ClickRentButton()" style="endArrow=classic;html=1;rounded=0;" parent="1" edge="1">
          <mxGeometry x="0.0087" y="10" width="50" height="50" relative="1" as="geometry">
            <mxPoint x="319.31" y="1680" as="sourcePoint" />
            <mxPoint x="433.31" y="1680" as="targetPoint" />
            <mxPoint as="offset" />
          </mxGeometry>
        </mxCell>
        <mxCell id="hhbA0WCjUp_SG_yH-NSP-90" value="ShowRentPage()" style="endArrow=classic;html=1;rounded=0;dashed=1;startArrow=none;startFill=0;" parent="1" edge="1">
          <mxGeometry x="-0.0226" y="10" width="50" height="50" relative="1" as="geometry">
            <mxPoint x="434.31" y="1699" as="sourcePoint" />
            <mxPoint x="318.31" y="1699" as="targetPoint" />
            <mxPoint as="offset" />
          </mxGeometry>
        </mxCell>
        <mxCell id="hhbA0WCjUp_SG_yH-NSP-93" value="" style="endArrow=none;dashed=1;html=1;rounded=0;" parent="1" target="hhbA0WCjUp_SG_yH-NSP-94" edge="1">
          <mxGeometry width="50" height="50" relative="1" as="geometry">
            <mxPoint x="693" y="1930" as="sourcePoint" />
            <mxPoint x="695.2999999999997" y="1600" as="targetPoint" />
          </mxGeometry>
        </mxCell>
        <mxCell id="hhbA0WCjUp_SG_yH-NSP-94" value="" style="rounded=0;whiteSpace=wrap;html=1;" parent="1" vertex="1">
          <mxGeometry x="689.31" y="1710" width="10" height="210" as="geometry" />
        </mxCell>
        <mxCell id="hhbA0WCjUp_SG_yH-NSP-100" value="alt" style="shape=umlFrame;whiteSpace=wrap;html=1;pointerEvents=0;width=45;height=20;" parent="1" vertex="1">
          <mxGeometry x="124.31000000000023" y="1761" width="690" height="90" as="geometry" />
        </mxCell>
        <mxCell id="hhbA0WCjUp_SG_yH-NSP-101" value="[審核成功]" style="text;html=1;align=center;verticalAlign=middle;whiteSpace=wrap;rounded=0;" parent="1" vertex="1">
          <mxGeometry x="128.31000000000023" y="1781" width="60" height="30" as="geometry" />
        </mxCell>
        <mxCell id="hhbA0WCjUp_SG_yH-NSP-102" value="[審核失敗]" style="text;html=1;align=center;verticalAlign=middle;whiteSpace=wrap;rounded=0;" parent="1" vertex="1">
          <mxGeometry x="127.31000000000023" y="1816" width="60" height="30" as="geometry" />
        </mxCell>
        <mxCell id="hhbA0WCjUp_SG_yH-NSP-103" value="" style="endArrow=none;dashed=1;html=1;rounded=0;entryX=1.001;entryY=0.567;entryDx=0;entryDy=0;entryPerimeter=0;exitX=0.005;exitY=0.567;exitDx=0;exitDy=0;exitPerimeter=0;" parent="1" source="hhbA0WCjUp_SG_yH-NSP-100" target="hhbA0WCjUp_SG_yH-NSP-100" edge="1">
          <mxGeometry width="50" height="50" relative="1" as="geometry">
            <mxPoint x="124.31000000000023" y="1813" as="sourcePoint" />
            <mxPoint x="544.31" y="1811" as="targetPoint" />
          </mxGeometry>
        </mxCell>
        <mxCell id="hhbA0WCjUp_SG_yH-NSP-104" value="EnterRentInformation()" style="endArrow=classic;html=1;rounded=0;" parent="1" edge="1">
          <mxGeometry x="0.0087" y="10" width="50" height="50" relative="1" as="geometry">
            <mxPoint x="445.31" y="1721" as="sourcePoint" />
            <mxPoint x="684.31" y="1721" as="targetPoint" />
            <mxPoint as="offset" />
          </mxGeometry>
        </mxCell>
        <mxCell id="hhbA0WCjUp_SG_yH-NSP-105" value="RentInformationReview()" style="endArrow=classic;html=1;rounded=0;edgeStyle=orthogonalEdgeStyle;" parent="1" edge="1">
          <mxGeometry x="0.0119" y="10" width="50" height="50" relative="1" as="geometry">
            <mxPoint x="699.31" y="1720" as="sourcePoint" />
            <mxPoint x="699.31" y="1751" as="targetPoint" />
            <mxPoint as="offset" />
            <Array as="points">
              <mxPoint x="813.31" y="1720" />
              <mxPoint x="813.31" y="1751" />
            </Array>
          </mxGeometry>
        </mxCell>
        <mxCell id="hhbA0WCjUp_SG_yH-NSP-106" value="ReturnSuccess&lt;br&gt;AndUploadInformation()" style="endArrow=classic;html=1;rounded=0;dashed=1;startArrow=none;startFill=0;" parent="1" edge="1">
          <mxGeometry x="-0.0261" y="20" width="50" height="50" relative="1" as="geometry">
            <mxPoint x="684.81" y="1771" as="sourcePoint" />
            <mxPoint x="569.31" y="1771" as="targetPoint" />
            <mxPoint as="offset" />
          </mxGeometry>
        </mxCell>
        <mxCell id="hhbA0WCjUp_SG_yH-NSP-107" value=":HousePage" style="rounded=1;whiteSpace=wrap;html=1;" parent="1" vertex="1">
          <mxGeometry x="524.31" y="1561" width="80" height="40" as="geometry" />
        </mxCell>
        <mxCell id="hhbA0WCjUp_SG_yH-NSP-108" value="" style="endArrow=none;dashed=1;html=1;rounded=0;" parent="1" edge="1">
          <mxGeometry width="50" height="50" relative="1" as="geometry">
            <mxPoint x="563" y="1930" as="sourcePoint" />
            <mxPoint x="563.31" y="1601" as="targetPoint" />
          </mxGeometry>
        </mxCell>
        <mxCell id="hhbA0WCjUp_SG_yH-NSP-109" value="" style="rounded=0;whiteSpace=wrap;html=1;" parent="1" vertex="1">
          <mxGeometry x="559.31" y="1761" width="10" height="50" as="geometry" />
        </mxCell>
        <mxCell id="hhbA0WCjUp_SG_yH-NSP-112" value="ReturnFail()" style="endArrow=classic;html=1;rounded=0;dashed=1;startArrow=none;startFill=0;" parent="1" edge="1">
          <mxGeometry x="-0.0261" y="20" width="50" height="50" relative="1" as="geometry">
            <mxPoint x="689.31" y="1820" as="sourcePoint" />
            <mxPoint x="444.31" y="1821" as="targetPoint" />
            <mxPoint as="offset" />
          </mxGeometry>
        </mxCell>
        <mxCell id="hhbA0WCjUp_SG_yH-NSP-141" value="User" style="shape=umlActor;verticalLabelPosition=bottom;verticalAlign=top;html=1;outlineConnect=0;" parent="1" vertex="1">
          <mxGeometry x="954.31" y="1540" width="30" height="60" as="geometry" />
        </mxCell>
        <mxCell id="hhbA0WCjUp_SG_yH-NSP-142" value="" style="endArrow=none;dashed=1;html=1;rounded=0;" parent="1" edge="1">
          <mxGeometry width="50" height="50" relative="1" as="geometry">
            <mxPoint x="968.31" y="1880" as="sourcePoint" />
            <mxPoint x="968.81" y="1630" as="targetPoint" />
          </mxGeometry>
        </mxCell>
        <mxCell id="hhbA0WCjUp_SG_yH-NSP-143" value=":UserUI" style="rounded=1;whiteSpace=wrap;html=1;" parent="1" vertex="1">
          <mxGeometry x="1054.31" y="1580" width="80" height="40" as="geometry" />
        </mxCell>
        <mxCell id="hhbA0WCjUp_SG_yH-NSP-144" value="" style="endArrow=none;dashed=1;html=1;rounded=0;entryX=0.5;entryY=1;entryDx=0;entryDy=0;" parent="1" target="hhbA0WCjUp_SG_yH-NSP-143" edge="1">
          <mxGeometry width="50" height="50" relative="1" as="geometry">
            <mxPoint x="1094.31" y="1880" as="sourcePoint" />
            <mxPoint x="1094.31" y="1630" as="targetPoint" />
          </mxGeometry>
        </mxCell>
        <mxCell id="hhbA0WCjUp_SG_yH-NSP-145" value="EnterRentSystem()" style="endArrow=classic;html=1;rounded=0;" parent="1" edge="1">
          <mxGeometry x="0.0087" y="10" width="50" height="50" relative="1" as="geometry">
            <mxPoint x="974.31" y="1650" as="sourcePoint" />
            <mxPoint x="1088.31" y="1650" as="targetPoint" />
            <mxPoint as="offset" />
          </mxGeometry>
        </mxCell>
        <mxCell id="hhbA0WCjUp_SG_yH-NSP-146" value="" style="rounded=0;whiteSpace=wrap;html=1;" parent="1" vertex="1">
          <mxGeometry x="1089.31" y="1640" width="10" height="200" as="geometry" />
        </mxCell>
        <mxCell id="hhbA0WCjUp_SG_yH-NSP-147" value="ShowUserUI()" style="endArrow=classic;html=1;rounded=0;dashed=1;" parent="1" edge="1">
          <mxGeometry x="-0.0526" y="14" width="50" height="50" relative="1" as="geometry">
            <mxPoint x="1089.31" y="1659.5" as="sourcePoint" />
            <mxPoint x="975.31" y="1659.5" as="targetPoint" />
            <mxPoint as="offset" />
          </mxGeometry>
        </mxCell>
        <mxCell id="hhbA0WCjUp_SG_yH-NSP-148" value=":system" style="rounded=1;whiteSpace=wrap;html=1;" parent="1" vertex="1">
          <mxGeometry x="1434.31" y="1580" width="80" height="40" as="geometry" />
        </mxCell>
        <mxCell id="hhbA0WCjUp_SG_yH-NSP-149" value="" style="endArrow=none;dashed=1;html=1;rounded=0;" parent="1" source="hhbA0WCjUp_SG_yH-NSP-157" edge="1">
          <mxGeometry width="50" height="50" relative="1" as="geometry">
            <mxPoint x="1475.31" y="1790" as="sourcePoint" />
            <mxPoint x="1475.2999999999997" y="1620" as="targetPoint" />
          </mxGeometry>
        </mxCell>
        <mxCell id="hhbA0WCjUp_SG_yH-NSP-150" value="&lt;span style=&quot;font-size: 20px;&quot;&gt;修改PO文-房東&lt;/span&gt;" style="text;html=1;align=center;verticalAlign=middle;whiteSpace=wrap;rounded=0;" parent="1" vertex="1">
          <mxGeometry x="976.31" y="1460" width="148" height="30" as="geometry" />
        </mxCell>
        <mxCell id="hhbA0WCjUp_SG_yH-NSP-151" value=":RentRevise&lt;br&gt;Page" style="rounded=1;whiteSpace=wrap;html=1;" parent="1" vertex="1">
          <mxGeometry x="1179.31" y="1580" width="80" height="40" as="geometry" />
        </mxCell>
        <mxCell id="hhbA0WCjUp_SG_yH-NSP-152" value="" style="endArrow=none;dashed=1;html=1;rounded=0;" parent="1" edge="1">
          <mxGeometry width="50" height="50" relative="1" as="geometry">
            <mxPoint x="1218.31" y="1880" as="sourcePoint" />
            <mxPoint x="1218.31" y="1620" as="targetPoint" />
          </mxGeometry>
        </mxCell>
        <mxCell id="hhbA0WCjUp_SG_yH-NSP-153" value="" style="rounded=0;whiteSpace=wrap;html=1;" parent="1" vertex="1">
          <mxGeometry x="1214.31" y="1670" width="10" height="201" as="geometry" />
        </mxCell>
        <mxCell id="hhbA0WCjUp_SG_yH-NSP-154" value="ClickRent&lt;br&gt;ReviseButtin()" style="endArrow=classic;html=1;rounded=0;" parent="1" edge="1">
          <mxGeometry x="-0.0351" y="19" width="50" height="50" relative="1" as="geometry">
            <mxPoint x="1099.31" y="1700" as="sourcePoint" />
            <mxPoint x="1213.31" y="1700" as="targetPoint" />
            <mxPoint as="offset" />
          </mxGeometry>
        </mxCell>
        <mxCell id="hhbA0WCjUp_SG_yH-NSP-155" value="ShowRent&lt;br&gt;RevisePage()" style="endArrow=classic;html=1;rounded=0;dashed=1;startArrow=none;startFill=0;" parent="1" edge="1">
          <mxGeometry x="0.0345" y="22" width="50" height="50" relative="1" as="geometry">
            <mxPoint x="1214.31" y="1719" as="sourcePoint" />
            <mxPoint x="1098.31" y="1719" as="targetPoint" />
            <mxPoint as="offset" />
          </mxGeometry>
        </mxCell>
        <mxCell id="hhbA0WCjUp_SG_yH-NSP-156" value="" style="endArrow=none;dashed=1;html=1;rounded=0;" parent="1" target="hhbA0WCjUp_SG_yH-NSP-157" edge="1">
          <mxGeometry width="50" height="50" relative="1" as="geometry">
            <mxPoint x="1473.31" y="1880" as="sourcePoint" />
            <mxPoint x="1475.2999999999997" y="1620" as="targetPoint" />
          </mxGeometry>
        </mxCell>
        <mxCell id="hhbA0WCjUp_SG_yH-NSP-157" value="" style="rounded=0;whiteSpace=wrap;html=1;" parent="1" vertex="1">
          <mxGeometry x="1469.31" y="1730" width="10" height="141" as="geometry" />
        </mxCell>
        <mxCell id="hhbA0WCjUp_SG_yH-NSP-158" value="alt" style="shape=umlFrame;whiteSpace=wrap;html=1;pointerEvents=0;width=45;height=20;" parent="1" vertex="1">
          <mxGeometry x="904.31" y="1781" width="690" height="90" as="geometry" />
        </mxCell>
        <mxCell id="hhbA0WCjUp_SG_yH-NSP-159" value="[審核成功]" style="text;html=1;align=center;verticalAlign=middle;whiteSpace=wrap;rounded=0;" parent="1" vertex="1">
          <mxGeometry x="908.31" y="1801" width="60" height="30" as="geometry" />
        </mxCell>
        <mxCell id="hhbA0WCjUp_SG_yH-NSP-160" value="[審核失敗]" style="text;html=1;align=center;verticalAlign=middle;whiteSpace=wrap;rounded=0;" parent="1" vertex="1">
          <mxGeometry x="907.31" y="1836" width="60" height="30" as="geometry" />
        </mxCell>
        <mxCell id="hhbA0WCjUp_SG_yH-NSP-161" value="" style="endArrow=none;dashed=1;html=1;rounded=0;entryX=1.001;entryY=0.567;entryDx=0;entryDy=0;entryPerimeter=0;exitX=0.005;exitY=0.567;exitDx=0;exitDy=0;exitPerimeter=0;" parent="1" source="hhbA0WCjUp_SG_yH-NSP-158" target="hhbA0WCjUp_SG_yH-NSP-158" edge="1">
          <mxGeometry width="50" height="50" relative="1" as="geometry">
            <mxPoint x="904.31" y="1833" as="sourcePoint" />
            <mxPoint x="1324.31" y="1831" as="targetPoint" />
          </mxGeometry>
        </mxCell>
        <mxCell id="hhbA0WCjUp_SG_yH-NSP-162" value="ReviseRentInformation()" style="endArrow=classic;html=1;rounded=0;" parent="1" edge="1">
          <mxGeometry x="0.0087" y="10" width="50" height="50" relative="1" as="geometry">
            <mxPoint x="1225.31" y="1741" as="sourcePoint" />
            <mxPoint x="1464.31" y="1741" as="targetPoint" />
            <mxPoint as="offset" />
          </mxGeometry>
        </mxCell>
        <mxCell id="hhbA0WCjUp_SG_yH-NSP-163" value="RentInformationReview()" style="endArrow=classic;html=1;rounded=0;edgeStyle=orthogonalEdgeStyle;" parent="1" edge="1">
          <mxGeometry x="0.0119" y="10" width="50" height="50" relative="1" as="geometry">
            <mxPoint x="1479.31" y="1740" as="sourcePoint" />
            <mxPoint x="1479.31" y="1771" as="targetPoint" />
            <mxPoint as="offset" />
            <Array as="points">
              <mxPoint x="1593.31" y="1740" />
              <mxPoint x="1593.31" y="1771" />
            </Array>
          </mxGeometry>
        </mxCell>
        <mxCell id="hhbA0WCjUp_SG_yH-NSP-164" value="ReturnSuccess&lt;br&gt;AndUpdateInformation()" style="endArrow=classic;html=1;rounded=0;dashed=1;startArrow=none;startFill=0;" parent="1" edge="1">
          <mxGeometry x="-0.1255" y="20" width="50" height="50" relative="1" as="geometry">
            <mxPoint x="1464.81" y="1791" as="sourcePoint" />
            <mxPoint x="1349.31" y="1791" as="targetPoint" />
            <mxPoint x="1" as="offset" />
          </mxGeometry>
        </mxCell>
        <mxCell id="hhbA0WCjUp_SG_yH-NSP-165" value=":HousePage" style="rounded=1;whiteSpace=wrap;html=1;" parent="1" vertex="1">
          <mxGeometry x="1304.31" y="1581" width="80" height="40" as="geometry" />
        </mxCell>
        <mxCell id="hhbA0WCjUp_SG_yH-NSP-166" value="" style="endArrow=none;dashed=1;html=1;rounded=0;" parent="1" edge="1">
          <mxGeometry width="50" height="50" relative="1" as="geometry">
            <mxPoint x="1343.31" y="1881" as="sourcePoint" />
            <mxPoint x="1343.31" y="1621" as="targetPoint" />
          </mxGeometry>
        </mxCell>
        <mxCell id="hhbA0WCjUp_SG_yH-NSP-167" value="" style="rounded=0;whiteSpace=wrap;html=1;" parent="1" vertex="1">
          <mxGeometry x="1339.31" y="1781" width="10" height="50" as="geometry" />
        </mxCell>
        <mxCell id="hhbA0WCjUp_SG_yH-NSP-168" value="ReturnFail()" style="endArrow=classic;html=1;rounded=0;dashed=1;startArrow=none;startFill=0;" parent="1" edge="1">
          <mxGeometry x="-0.0261" y="20" width="50" height="50" relative="1" as="geometry">
            <mxPoint x="1469.31" y="1840" as="sourcePoint" />
            <mxPoint x="1224.31" y="1841" as="targetPoint" />
            <mxPoint as="offset" />
          </mxGeometry>
        </mxCell>
        <mxCell id="6JksKLlRJOFZefoFKc95-10" value="ClickDeleteKeep()" style="endArrow=classic;html=1;rounded=0;" edge="1" parent="1">
          <mxGeometry x="0.0087" y="10" width="50" height="50" relative="1" as="geometry">
            <mxPoint x="1244" y="1180" as="sourcePoint" />
            <mxPoint x="1580" y="1180" as="targetPoint" />
            <mxPoint as="offset" />
          </mxGeometry>
        </mxCell>
        <mxCell id="6JksKLlRJOFZefoFKc95-16" value="ReturnSuccess()" style="endArrow=classic;html=1;rounded=0;edgeStyle=orthogonalEdgeStyle;" edge="1" parent="1">
          <mxGeometry x="0.0087" y="10" width="50" height="50" relative="1" as="geometry">
            <mxPoint x="1596.5" y="1180" as="sourcePoint" />
            <mxPoint x="1593" y="1230" as="targetPoint" />
            <mxPoint as="offset" />
            <Array as="points">
              <mxPoint x="1700" y="1180" />
              <mxPoint x="1700" y="1230" />
              <mxPoint x="1593" y="1230" />
            </Array>
          </mxGeometry>
        </mxCell>
        <mxCell id="6JksKLlRJOFZefoFKc95-17" value="ShowKeepPage()" style="endArrow=classic;html=1;rounded=0;dashed=1;startArrow=none;startFill=0;" edge="1" parent="1">
          <mxGeometry x="-0.0226" y="10" width="50" height="50" relative="1" as="geometry">
            <mxPoint x="1580" y="1230" as="sourcePoint" />
            <mxPoint x="1250" y="1230" as="targetPoint" />
            <mxPoint as="offset" />
          </mxGeometry>
        </mxCell>
        <mxCell id="6JksKLlRJOFZefoFKc95-18" value="User" style="shape=umlActor;verticalLabelPosition=bottom;verticalAlign=top;html=1;outlineConnect=0;" vertex="1" parent="1">
          <mxGeometry x="1780" y="840" width="30" height="60" as="geometry" />
        </mxCell>
        <mxCell id="6JksKLlRJOFZefoFKc95-19" value="" style="endArrow=none;dashed=1;html=1;rounded=0;" edge="1" parent="1">
          <mxGeometry width="50" height="50" relative="1" as="geometry">
            <mxPoint x="1795" y="1290" as="sourcePoint" />
            <mxPoint x="1794.5" y="930" as="targetPoint" />
          </mxGeometry>
        </mxCell>
        <mxCell id="6JksKLlRJOFZefoFKc95-20" value=":UserUI" style="rounded=1;whiteSpace=wrap;html=1;" vertex="1" parent="1">
          <mxGeometry x="1880" y="880" width="80" height="40" as="geometry" />
        </mxCell>
        <mxCell id="6JksKLlRJOFZefoFKc95-21" value="" style="endArrow=none;dashed=1;html=1;rounded=0;entryX=0.5;entryY=1;entryDx=0;entryDy=0;" edge="1" parent="1" target="6JksKLlRJOFZefoFKc95-20">
          <mxGeometry width="50" height="50" relative="1" as="geometry">
            <mxPoint x="1920" y="1290" as="sourcePoint" />
            <mxPoint x="1920" y="930" as="targetPoint" />
          </mxGeometry>
        </mxCell>
        <mxCell id="6JksKLlRJOFZefoFKc95-22" value=":Comment&lt;br&gt;Page" style="rounded=1;whiteSpace=wrap;html=1;" vertex="1" parent="1">
          <mxGeometry x="2124" y="880" width="80" height="40" as="geometry" />
        </mxCell>
        <mxCell id="6JksKLlRJOFZefoFKc95-23" value="" style="endArrow=none;dashed=1;html=1;rounded=0;" edge="1" parent="1" source="6JksKLlRJOFZefoFKc95-46">
          <mxGeometry width="50" height="50" relative="1" as="geometry">
            <mxPoint x="2167" y="1250" as="sourcePoint" />
            <mxPoint x="2167" y="920" as="targetPoint" />
          </mxGeometry>
        </mxCell>
        <mxCell id="6JksKLlRJOFZefoFKc95-24" value="EnterKeepSystem()" style="endArrow=classic;html=1;rounded=0;" edge="1" parent="1">
          <mxGeometry x="0.0087" y="10" width="50" height="50" relative="1" as="geometry">
            <mxPoint x="1800" y="950" as="sourcePoint" />
            <mxPoint x="1914" y="950" as="targetPoint" />
            <mxPoint as="offset" />
          </mxGeometry>
        </mxCell>
        <mxCell id="6JksKLlRJOFZefoFKc95-25" value="" style="rounded=0;whiteSpace=wrap;html=1;" vertex="1" parent="1">
          <mxGeometry x="1915" y="940" width="10" height="80" as="geometry" />
        </mxCell>
        <mxCell id="6JksKLlRJOFZefoFKc95-26" value="ShowUserUI()" style="endArrow=classic;html=1;rounded=0;dashed=1;" edge="1" parent="1">
          <mxGeometry x="-0.0526" y="14" width="50" height="50" relative="1" as="geometry">
            <mxPoint x="1915" y="959.5" as="sourcePoint" />
            <mxPoint x="1801" y="959.5" as="targetPoint" />
            <mxPoint as="offset" />
          </mxGeometry>
        </mxCell>
        <mxCell id="6JksKLlRJOFZefoFKc95-27" value=":system" style="rounded=1;whiteSpace=wrap;html=1;" vertex="1" parent="1">
          <mxGeometry x="2234" y="880" width="80" height="40" as="geometry" />
        </mxCell>
        <mxCell id="6JksKLlRJOFZefoFKc95-28" value="" style="endArrow=none;dashed=1;html=1;rounded=0;" edge="1" parent="1" source="6JksKLlRJOFZefoFKc95-36">
          <mxGeometry width="50" height="50" relative="1" as="geometry">
            <mxPoint x="2275" y="1090" as="sourcePoint" />
            <mxPoint x="2274.99" y="920" as="targetPoint" />
          </mxGeometry>
        </mxCell>
        <mxCell id="6JksKLlRJOFZefoFKc95-29" value=":KeepPage" style="rounded=1;whiteSpace=wrap;html=1;" vertex="1" parent="1">
          <mxGeometry x="2005" y="880" width="80" height="40" as="geometry" />
        </mxCell>
        <mxCell id="6JksKLlRJOFZefoFKc95-30" value="" style="endArrow=none;dashed=1;html=1;rounded=0;" edge="1" parent="1">
          <mxGeometry width="50" height="50" relative="1" as="geometry">
            <mxPoint x="2044" y="1290" as="sourcePoint" />
            <mxPoint x="2044" y="920" as="targetPoint" />
          </mxGeometry>
        </mxCell>
        <mxCell id="6JksKLlRJOFZefoFKc95-31" value="" style="rounded=0;whiteSpace=wrap;html=1;" vertex="1" parent="1">
          <mxGeometry x="2040" y="970" width="10" height="310" as="geometry" />
        </mxCell>
        <mxCell id="6JksKLlRJOFZefoFKc95-32" value="ClickKeepButton()" style="endArrow=classic;html=1;rounded=0;" edge="1" parent="1">
          <mxGeometry x="0.0087" y="10" width="50" height="50" relative="1" as="geometry">
            <mxPoint x="1925" y="1000" as="sourcePoint" />
            <mxPoint x="2039" y="1000" as="targetPoint" />
            <mxPoint as="offset" />
          </mxGeometry>
        </mxCell>
        <mxCell id="6JksKLlRJOFZefoFKc95-33" value="ClickComment&lt;br&gt;Button()" style="endArrow=classic;html=1;rounded=0;" edge="1" parent="1">
          <mxGeometry x="0.1093" y="15" width="50" height="50" relative="1" as="geometry">
            <mxPoint x="2050" y="1014.5" as="sourcePoint" />
            <mxPoint x="2150" y="1015" as="targetPoint" />
            <mxPoint as="offset" />
          </mxGeometry>
        </mxCell>
        <mxCell id="6JksKLlRJOFZefoFKc95-35" value="" style="endArrow=none;dashed=1;html=1;rounded=0;" edge="1" parent="1" target="6JksKLlRJOFZefoFKc95-36">
          <mxGeometry width="50" height="50" relative="1" as="geometry">
            <mxPoint x="2273" y="1290" as="sourcePoint" />
            <mxPoint x="2274.99" y="920" as="targetPoint" />
          </mxGeometry>
        </mxCell>
        <mxCell id="6JksKLlRJOFZefoFKc95-36" value="" style="rounded=0;whiteSpace=wrap;html=1;" vertex="1" parent="1">
          <mxGeometry x="2269" y="1080" width="10" height="190" as="geometry" />
        </mxCell>
        <mxCell id="6JksKLlRJOFZefoFKc95-43" value="ReturnSuccess()" style="endArrow=classic;html=1;rounded=0;edgeStyle=orthogonalEdgeStyle;" edge="1" parent="1">
          <mxGeometry x="0.0087" y="10" width="50" height="50" relative="1" as="geometry">
            <mxPoint x="2282.5" y="1170" as="sourcePoint" />
            <mxPoint x="2279" y="1220" as="targetPoint" />
            <mxPoint as="offset" />
            <Array as="points">
              <mxPoint x="2386" y="1170" />
              <mxPoint x="2386" y="1220" />
              <mxPoint x="2279" y="1220" />
            </Array>
          </mxGeometry>
        </mxCell>
        <mxCell id="6JksKLlRJOFZefoFKc95-45" value="&lt;span style=&quot;font-size: 20px;&quot;&gt;撰寫評論及星數-房客&lt;/span&gt;" style="text;html=1;align=center;verticalAlign=middle;whiteSpace=wrap;rounded=0;" vertex="1" parent="1">
          <mxGeometry x="1783" y="750" width="222" height="30" as="geometry" />
        </mxCell>
        <mxCell id="6JksKLlRJOFZefoFKc95-47" value="" style="endArrow=none;dashed=1;html=1;rounded=0;" edge="1" parent="1" target="6JksKLlRJOFZefoFKc95-46">
          <mxGeometry width="50" height="50" relative="1" as="geometry">
            <mxPoint x="2166" y="1290" as="sourcePoint" />
            <mxPoint x="2167" y="920" as="targetPoint" />
          </mxGeometry>
        </mxCell>
        <mxCell id="6JksKLlRJOFZefoFKc95-46" value="" style="rounded=0;whiteSpace=wrap;html=1;" vertex="1" parent="1">
          <mxGeometry x="2160" y="1000" width="10" height="200" as="geometry" />
        </mxCell>
        <mxCell id="6JksKLlRJOFZefoFKc95-48" value="ChooesCommentHouse()" style="endArrow=classic;html=1;rounded=0;edgeStyle=orthogonalEdgeStyle;" edge="1" parent="1">
          <mxGeometry y="39" width="50" height="50" relative="1" as="geometry">
            <mxPoint x="2172" y="1020" as="sourcePoint" />
            <mxPoint x="2172" y="1040" as="targetPoint" />
            <mxPoint as="offset" />
            <Array as="points">
              <mxPoint x="2172" y="1021" />
              <mxPoint x="2211" y="1021" />
              <mxPoint x="2211" y="1040" />
            </Array>
          </mxGeometry>
        </mxCell>
        <mxCell id="6JksKLlRJOFZefoFKc95-50" value="GetAuthorization()" style="endArrow=classic;html=1;rounded=0;" edge="1" parent="1">
          <mxGeometry x="0.1093" y="15" width="50" height="50" relative="1" as="geometry">
            <mxPoint x="2170" y="1084.5" as="sourcePoint" />
            <mxPoint x="2270" y="1085" as="targetPoint" />
            <mxPoint as="offset" />
          </mxGeometry>
        </mxCell>
        <mxCell id="6JksKLlRJOFZefoFKc95-52" value="LandlordAuthorization()" style="endArrow=classic;html=1;rounded=0;edgeStyle=orthogonalEdgeStyle;" edge="1" parent="1">
          <mxGeometry x="-0.0134" y="14" width="50" height="50" relative="1" as="geometry">
            <mxPoint x="2282.5" y="1095" as="sourcePoint" />
            <mxPoint x="2279" y="1130" as="targetPoint" />
            <mxPoint as="offset" />
            <Array as="points">
              <mxPoint x="2386" y="1095" />
              <mxPoint x="2386" y="1130" />
              <mxPoint x="2279" y="1130" />
            </Array>
          </mxGeometry>
        </mxCell>
        <mxCell id="6JksKLlRJOFZefoFKc95-53" value="EnterComment&lt;br&gt;AndStar()" style="endArrow=classic;html=1;rounded=0;" edge="1" parent="1">
          <mxGeometry x="0.1093" y="15" width="50" height="50" relative="1" as="geometry">
            <mxPoint x="2169" y="1160" as="sourcePoint" />
            <mxPoint x="2269" y="1160.5" as="targetPoint" />
            <mxPoint as="offset" />
          </mxGeometry>
        </mxCell>
        <mxCell id="6JksKLlRJOFZefoFKc95-54" value="ReturnSuccessMessage()" style="endArrow=classic;html=1;rounded=0;dashed=1;startArrow=none;startFill=0;exitX=0;exitY=0.75;exitDx=0;exitDy=0;entryX=1.64;entryY=0.814;entryDx=0;entryDy=0;entryPerimeter=0;" edge="1" parent="1" source="6JksKLlRJOFZefoFKc95-36" target="6JksKLlRJOFZefoFKc95-31">
          <mxGeometry x="-0.0226" y="10" width="50" height="50" relative="1" as="geometry">
            <mxPoint x="2240" y="1290" as="sourcePoint" />
            <mxPoint x="1910" y="1290" as="targetPoint" />
            <mxPoint as="offset" />
          </mxGeometry>
        </mxCell>
        <mxCell id="6JksKLlRJOFZefoFKc95-82" value="ClickDeleteRent()" style="endArrow=classic;html=1;rounded=0;" edge="1" parent="1">
          <mxGeometry x="0.0087" y="10" width="50" height="50" relative="1" as="geometry">
            <mxPoint x="450.31" y="1880" as="sourcePoint" />
            <mxPoint x="689.31" y="1880" as="targetPoint" />
            <mxPoint as="offset" />
          </mxGeometry>
        </mxCell>
        <mxCell id="6JksKLlRJOFZefoFKc95-83" value="ReturnSuccess()" style="endArrow=classic;html=1;rounded=0;edgeStyle=orthogonalEdgeStyle;entryX=1.429;entryY=0.947;entryDx=0;entryDy=0;entryPerimeter=0;" edge="1" parent="1" target="hhbA0WCjUp_SG_yH-NSP-94">
          <mxGeometry x="0.0087" y="10" width="50" height="50" relative="1" as="geometry">
            <mxPoint x="702.5" y="1880" as="sourcePoint" />
            <mxPoint x="710" y="1910" as="targetPoint" />
            <mxPoint as="offset" />
            <Array as="points">
              <mxPoint x="806" y="1880" />
              <mxPoint x="806" y="1910" />
              <mxPoint x="710" y="1910" />
              <mxPoint x="710" y="1909" />
            </Array>
          </mxGeometry>
        </mxCell>
        <mxCell id="6JksKLlRJOFZefoFKc95-85" value="ReturnSuccess()" style="endArrow=classic;html=1;rounded=0;dashed=1;startArrow=none;startFill=0;" edge="1" parent="1">
          <mxGeometry x="-0.0226" y="10" width="50" height="50" relative="1" as="geometry">
            <mxPoint x="685" y="1910" as="sourcePoint" />
            <mxPoint x="320" y="1910" as="targetPoint" />
            <mxPoint as="offset" />
          </mxGeometry>
        </mxCell>
        <mxCell id="6JksKLlRJOFZefoFKc95-87" value="User" style="shape=umlActor;verticalLabelPosition=bottom;verticalAlign=top;html=1;outlineConnect=0;" vertex="1" parent="1">
          <mxGeometry x="1790" y="1550" width="30" height="60" as="geometry" />
        </mxCell>
        <mxCell id="6JksKLlRJOFZefoFKc95-88" value="" style="endArrow=none;dashed=1;html=1;rounded=0;" edge="1" parent="1">
          <mxGeometry width="50" height="50" relative="1" as="geometry">
            <mxPoint x="1805" y="2000" as="sourcePoint" />
            <mxPoint x="1804.5" y="1640" as="targetPoint" />
          </mxGeometry>
        </mxCell>
        <mxCell id="6JksKLlRJOFZefoFKc95-89" value=":UserUI" style="rounded=1;whiteSpace=wrap;html=1;" vertex="1" parent="1">
          <mxGeometry x="1890" y="1590" width="80" height="40" as="geometry" />
        </mxCell>
        <mxCell id="6JksKLlRJOFZefoFKc95-90" value="" style="endArrow=none;dashed=1;html=1;rounded=0;entryX=0.5;entryY=1;entryDx=0;entryDy=0;" edge="1" parent="1" target="6JksKLlRJOFZefoFKc95-89">
          <mxGeometry width="50" height="50" relative="1" as="geometry">
            <mxPoint x="1930" y="2000" as="sourcePoint" />
            <mxPoint x="1930" y="1640" as="targetPoint" />
          </mxGeometry>
        </mxCell>
        <mxCell id="6JksKLlRJOFZefoFKc95-93" value="EnterKeepSystem()" style="endArrow=classic;html=1;rounded=0;" edge="1" parent="1">
          <mxGeometry x="0.0087" y="10" width="50" height="50" relative="1" as="geometry">
            <mxPoint x="1810" y="1660" as="sourcePoint" />
            <mxPoint x="1924" y="1660" as="targetPoint" />
            <mxPoint as="offset" />
          </mxGeometry>
        </mxCell>
        <mxCell id="6JksKLlRJOFZefoFKc95-94" value="" style="rounded=0;whiteSpace=wrap;html=1;" vertex="1" parent="1">
          <mxGeometry x="1925" y="1650" width="10" height="290" as="geometry" />
        </mxCell>
        <mxCell id="6JksKLlRJOFZefoFKc95-95" value="ShowUserUI()" style="endArrow=classic;html=1;rounded=0;dashed=1;" edge="1" parent="1">
          <mxGeometry x="-0.0526" y="14" width="50" height="50" relative="1" as="geometry">
            <mxPoint x="1925" y="1669.5" as="sourcePoint" />
            <mxPoint x="1811" y="1669.5" as="targetPoint" />
            <mxPoint as="offset" />
          </mxGeometry>
        </mxCell>
        <mxCell id="6JksKLlRJOFZefoFKc95-96" value=":system" style="rounded=1;whiteSpace=wrap;html=1;" vertex="1" parent="1">
          <mxGeometry x="2154" y="1590" width="80" height="40" as="geometry" />
        </mxCell>
        <mxCell id="6JksKLlRJOFZefoFKc95-97" value="" style="endArrow=none;dashed=1;html=1;rounded=0;" edge="1" parent="1">
          <mxGeometry width="50" height="50" relative="1" as="geometry">
            <mxPoint x="2195" y="1960" as="sourcePoint" />
            <mxPoint x="2194.99" y="1630" as="targetPoint" />
          </mxGeometry>
        </mxCell>
        <mxCell id="6JksKLlRJOFZefoFKc95-98" value=":Review&lt;br&gt;CommentPage" style="rounded=1;whiteSpace=wrap;html=1;" vertex="1" parent="1">
          <mxGeometry x="2015" y="1590" width="80" height="40" as="geometry" />
        </mxCell>
        <mxCell id="6JksKLlRJOFZefoFKc95-99" value="" style="endArrow=none;dashed=1;html=1;rounded=0;" edge="1" parent="1" source="6JksKLlRJOFZefoFKc95-116">
          <mxGeometry width="50" height="50" relative="1" as="geometry">
            <mxPoint x="2054" y="2000" as="sourcePoint" />
            <mxPoint x="2054" y="1630" as="targetPoint" />
          </mxGeometry>
        </mxCell>
        <mxCell id="6JksKLlRJOFZefoFKc95-100" value="" style="rounded=0;whiteSpace=wrap;html=1;" vertex="1" parent="1">
          <mxGeometry x="2194" y="1770" width="10" height="150" as="geometry" />
        </mxCell>
        <mxCell id="6JksKLlRJOFZefoFKc95-101" value="ClickReview&lt;br&gt;CommentPage()" style="endArrow=classic;html=1;rounded=0;" edge="1" parent="1">
          <mxGeometry x="-0.0526" y="20" width="50" height="50" relative="1" as="geometry">
            <mxPoint x="1936" y="1700" as="sourcePoint" />
            <mxPoint x="2050" y="1700" as="targetPoint" />
            <mxPoint as="offset" />
          </mxGeometry>
        </mxCell>
        <mxCell id="6JksKLlRJOFZefoFKc95-106" value="&lt;span style=&quot;font-size: 20px;&quot;&gt;審核評論者身分-房東&lt;/span&gt;" style="text;html=1;align=center;verticalAlign=middle;whiteSpace=wrap;rounded=0;" vertex="1" parent="1">
          <mxGeometry x="1793" y="1460" width="222" height="30" as="geometry" />
        </mxCell>
        <mxCell id="6JksKLlRJOFZefoFKc95-114" value="ClickPendingReview()" style="endArrow=classic;html=1;rounded=0;edgeStyle=orthogonalEdgeStyle;" edge="1" parent="1">
          <mxGeometry x="0.3728" y="-9" width="50" height="50" relative="1" as="geometry">
            <mxPoint x="2060" y="1709" as="sourcePoint" />
            <mxPoint x="2070" y="1739" as="targetPoint" />
            <mxPoint as="offset" />
            <Array as="points">
              <mxPoint x="2060" y="1710" />
              <mxPoint x="2140" y="1710" />
              <mxPoint x="2140" y="1739" />
            </Array>
          </mxGeometry>
        </mxCell>
        <mxCell id="6JksKLlRJOFZefoFKc95-115" value="TransmitReviewResult()" style="endArrow=classic;html=1;rounded=0;" edge="1" parent="1">
          <mxGeometry x="0.0769" y="11" width="50" height="50" relative="1" as="geometry">
            <mxPoint x="2060" y="1781" as="sourcePoint" />
            <mxPoint x="2190" y="1781" as="targetPoint" />
            <mxPoint as="offset" />
          </mxGeometry>
        </mxCell>
        <mxCell id="6JksKLlRJOFZefoFKc95-117" value="" style="endArrow=none;dashed=1;html=1;rounded=0;" edge="1" parent="1" source="6JksKLlRJOFZefoFKc95-125" target="6JksKLlRJOFZefoFKc95-116">
          <mxGeometry width="50" height="50" relative="1" as="geometry">
            <mxPoint x="2054" y="2000" as="sourcePoint" />
            <mxPoint x="2054" y="1630" as="targetPoint" />
          </mxGeometry>
        </mxCell>
        <mxCell id="6JksKLlRJOFZefoFKc95-116" value="" style="rounded=0;whiteSpace=wrap;html=1;" vertex="1" parent="1">
          <mxGeometry x="2050" y="1691" width="10" height="110" as="geometry" />
        </mxCell>
        <mxCell id="6JksKLlRJOFZefoFKc95-118" value="alt" style="shape=umlFrame;whiteSpace=wrap;html=1;pointerEvents=0;width=45;height=20;" vertex="1" parent="1">
          <mxGeometry x="1709.66" y="1806" width="550.34" height="114" as="geometry" />
        </mxCell>
        <mxCell id="6JksKLlRJOFZefoFKc95-119" value="[審核成功]" style="text;html=1;align=center;verticalAlign=middle;whiteSpace=wrap;rounded=0;" vertex="1" parent="1">
          <mxGeometry x="1713.6599999999999" y="1826" width="60" height="30" as="geometry" />
        </mxCell>
        <mxCell id="6JksKLlRJOFZefoFKc95-120" value="[審核失敗]" style="text;html=1;align=center;verticalAlign=middle;whiteSpace=wrap;rounded=0;" vertex="1" parent="1">
          <mxGeometry x="1713.6599999999999" y="1871" width="60" height="30" as="geometry" />
        </mxCell>
        <mxCell id="6JksKLlRJOFZefoFKc95-121" value="" style="endArrow=none;dashed=1;html=1;rounded=0;exitX=0.005;exitY=0.567;exitDx=0;exitDy=0;exitPerimeter=0;entryX=1.005;entryY=0.573;entryDx=0;entryDy=0;entryPerimeter=0;" edge="1" parent="1" source="6JksKLlRJOFZefoFKc95-118" target="6JksKLlRJOFZefoFKc95-118">
          <mxGeometry width="50" height="50" relative="1" as="geometry">
            <mxPoint x="1709.6599999999999" y="1858" as="sourcePoint" />
            <mxPoint x="2330" y="1857" as="targetPoint" />
          </mxGeometry>
        </mxCell>
        <mxCell id="6JksKLlRJOFZefoFKc95-123" value="ShowTenantInformation()" style="endArrow=classic;html=1;rounded=0;dashed=1;startArrow=none;startFill=0;" edge="1" parent="1">
          <mxGeometry x="-0.1255" y="20" width="50" height="50" relative="1" as="geometry">
            <mxPoint x="2190" y="1825" as="sourcePoint" />
            <mxPoint x="1940" y="1825" as="targetPoint" />
            <mxPoint x="1" as="offset" />
          </mxGeometry>
        </mxCell>
        <mxCell id="6JksKLlRJOFZefoFKc95-124" value="ShowReview&lt;br&gt;CommentPage()" style="endArrow=classic;html=1;rounded=0;dashed=1;startArrow=none;startFill=0;" edge="1" parent="1">
          <mxGeometry x="-0.1255" y="20" width="50" height="50" relative="1" as="geometry">
            <mxPoint x="2190.5" y="1880" as="sourcePoint" />
            <mxPoint x="2067.5" y="1880" as="targetPoint" />
            <mxPoint x="1" as="offset" />
          </mxGeometry>
        </mxCell>
        <mxCell id="6JksKLlRJOFZefoFKc95-126" value="" style="endArrow=none;dashed=1;html=1;rounded=0;" edge="1" parent="1" target="6JksKLlRJOFZefoFKc95-125">
          <mxGeometry width="50" height="50" relative="1" as="geometry">
            <mxPoint x="2054" y="2000" as="sourcePoint" />
            <mxPoint x="2055" y="1801" as="targetPoint" />
          </mxGeometry>
        </mxCell>
        <mxCell id="6JksKLlRJOFZefoFKc95-125" value="" style="rounded=0;whiteSpace=wrap;html=1;" vertex="1" parent="1">
          <mxGeometry x="2050" y="1871" width="10" height="19" as="geometry" />
        </mxCell>
      </root>
    </mxGraphModel>
  </diagram>
</mxfile>
